<?xml version="1.0" encoding="UTF-8" standalone="no"?><svg xmlns="http://www.w3.org/2000/svg" xmlns:xlink="http://www.w3.org/1999/xlink" contentScriptType="application/ecmascript" contentStyleType="text/css" height="253px" preserveAspectRatio="none" style="width:535px;height:253px;" version="1.1" viewBox="0 0 535 253" width="535px" zoomAndPan="magnify"><defs><filter height="300%" id="f1csj6uldt5d5w" width="300%" x="-1" y="-1"><feGaussianBlur result="blurOut" stdDeviation="2.0"/><feColorMatrix in="blurOut" result="blurOut2" type="matrix" values="0 0 0 0 0 0 0 0 0 0 0 0 0 0 0 0 0 0 .4 0"/><feOffset dx="4.0" dy="4.0" in="blurOut2" result="blurOut3"/><feBlend in="SourceGraphic" in2="blurOut3" mode="normal"/></filter></defs><g><text fill="#000000" font-family="sans-serif" font-size="18" lengthAdjust="spacingAndGlyphs" textLength="226" x="158.5" y="18.6855">Gestionnaires d'événements</text><!--class GestionnaireSqlPatient--><rect fill="#FEFECE" filter="url(#f1csj6uldt5d5w)" height="89.5078" id="GestionnaireSqlPatient" style="stroke: #A80036; stroke-width: 1.5;" width="249" x="6" y="30.6406"/><ellipse cx="62.75" cy="46.6406" fill="#ADD1B2" rx="11" ry="11" style="stroke: #A80036; stroke-width: 1.0;"/><path d="M65.5156,42.5156 Q65.6719,42.2969 65.8594,42.1875 Q66.0469,42.0781 66.2656,42.0781 Q66.6406,42.0781 66.875,42.3359 Q67.1094,42.5938 67.1094,43.2031 L67.1094,44.6563 Q67.1094,45.2656 66.875,45.5313 Q66.6406,45.7969 66.2656,45.7969 Q65.9219,45.7969 65.7188,45.5938 Q65.5156,45.4063 65.4063,44.8906 Q65.3594,44.5313 65.1719,44.3438 Q64.8438,43.9688 64.2344,43.75 Q63.625,43.5313 63,43.5313 Q62.2344,43.5313 61.6016,43.8594 Q60.9688,44.1875 60.4766,44.9375 Q59.9844,45.6875 59.9844,46.7188 L59.9844,47.8125 Q59.9844,49.0469 60.875,49.8672 Q61.7656,50.6875 63.3594,50.6875 Q64.2969,50.6875 64.9531,50.4375 Q65.3438,50.2813 65.7656,49.8438 Q66.0313,49.5781 66.1797,49.5 Q66.3281,49.4219 66.5313,49.4219 Q66.8594,49.4219 67.1172,49.6797 Q67.375,49.9375 67.375,50.2813 Q67.375,50.625 67.0313,51.0313 Q66.5313,51.6094 65.7344,51.9375 Q64.6563,52.3906 63.3594,52.3906 Q61.8438,52.3906 60.6406,51.7656 Q59.6563,51.2656 58.9688,50.1953 Q58.2813,49.125 58.2813,47.8438 L58.2813,46.6875 Q58.2813,45.3594 58.8984,44.2109 Q59.5156,43.0625 60.6094,42.4453 Q61.7031,41.8281 62.9375,41.8281 Q63.6719,41.8281 64.3203,41.9922 Q64.9688,42.1563 65.5156,42.5156 Z "/><text fill="#000000" font-family="sans-serif" font-size="12" lengthAdjust="spacingAndGlyphs" textLength="127" x="83.25" y="51.5508">GestionnaireSqlPatient</text><line style="stroke: #A80036; stroke-width: 1.5;" x1="7" x2="254" y1="62.6406" y2="62.6406"/><line style="stroke: #A80036; stroke-width: 1.5;" x1="7" x2="254" y1="70.6406" y2="70.6406"/><ellipse cx="17" cy="83.0586" fill="#84BE84" rx="3" ry="3" style="stroke: #038048; stroke-width: 1.0;"/><text fill="#000000" font-family="sans-serif" font-size="11" lengthAdjust="spacingAndGlyphs" textLength="179" x="26" y="86.0596">void Handle(PatientAssignéAuLit evt)</text><ellipse cx="17" cy="96.8945" fill="#84BE84" rx="3" ry="3" style="stroke: #038048; stroke-width: 1.0;"/><text fill="#000000" font-family="sans-serif" font-size="11" lengthAdjust="spacingAndGlyphs" textLength="151" x="26" y="99.8955">void Handle(PatientFacturé evt)</text><ellipse cx="17" cy="110.7305" fill="#84BE84" rx="3" ry="3" style="stroke: #038048; stroke-width: 1.0;"/><text fill="#000000" font-family="sans-serif" font-size="11" lengthAdjust="spacingAndGlyphs" textLength="223" x="26" y="113.7314">void Handle(AssuranceMaladieMiseÀJour evt)</text><!--class GestionnaireNotificationCourriel--><rect fill="#FEFECE" filter="url(#f1csj6uldt5d5w)" height="75.6719" id="GestionnaireNotificationCourriel" style="stroke: #A80036; stroke-width: 1.5;" width="234" x="290.5" y="37.6406"/><ellipse cx="317.2" cy="53.6406" fill="#ADD1B2" rx="11" ry="11" style="stroke: #A80036; stroke-width: 1.0;"/><path d="M319.9656,49.5156 Q320.1219,49.2969 320.3094,49.1875 Q320.4969,49.0781 320.7156,49.0781 Q321.0906,49.0781 321.325,49.3359 Q321.5594,49.5938 321.5594,50.2031 L321.5594,51.6563 Q321.5594,52.2656 321.325,52.5313 Q321.0906,52.7969 320.7156,52.7969 Q320.3719,52.7969 320.1688,52.5938 Q319.9656,52.4063 319.8563,51.8906 Q319.8094,51.5313 319.6219,51.3438 Q319.2938,50.9688 318.6844,50.75 Q318.075,50.5313 317.45,50.5313 Q316.6844,50.5313 316.0516,50.8594 Q315.4188,51.1875 314.9266,51.9375 Q314.4344,52.6875 314.4344,53.7188 L314.4344,54.8125 Q314.4344,56.0469 315.325,56.8672 Q316.2156,57.6875 317.8094,57.6875 Q318.7469,57.6875 319.4031,57.4375 Q319.7938,57.2813 320.2156,56.8438 Q320.4813,56.5781 320.6297,56.5 Q320.7781,56.4219 320.9813,56.4219 Q321.3094,56.4219 321.5672,56.6797 Q321.825,56.9375 321.825,57.2813 Q321.825,57.625 321.4813,58.0313 Q320.9813,58.6094 320.1844,58.9375 Q319.1063,59.3906 317.8094,59.3906 Q316.2938,59.3906 315.0906,58.7656 Q314.1063,58.2656 313.4188,57.1953 Q312.7313,56.125 312.7313,54.8438 L312.7313,53.6875 Q312.7313,52.3594 313.3484,51.2109 Q313.9656,50.0625 315.0594,49.4453 Q316.1531,48.8281 317.3875,48.8281 Q318.1219,48.8281 318.7703,48.9922 Q319.4188,49.1563 319.9656,49.5156 Z "/><text fill="#000000" font-family="sans-serif" font-size="12" lengthAdjust="spacingAndGlyphs" textLength="176" x="333.8" y="58.5508">GestionnaireNotificationCourriel</text><line style="stroke: #A80036; stroke-width: 1.5;" x1="291.5" x2="523.5" y1="69.6406" y2="69.6406"/><line style="stroke: #A80036; stroke-width: 1.5;" x1="291.5" x2="523.5" y1="77.6406" y2="77.6406"/><ellipse cx="301.5" cy="90.0586" fill="#84BE84" rx="3" ry="3" style="stroke: #038048; stroke-width: 1.0;"/><text fill="#000000" font-family="sans-serif" font-size="11" lengthAdjust="spacingAndGlyphs" textLength="151" x="310.5" y="93.0596">void Handle(PatientFacturé evt)</text><ellipse cx="301.5" cy="103.8945" fill="#84BE84" rx="3" ry="3" style="stroke: #038048; stroke-width: 1.0;"/><text fill="#000000" font-family="sans-serif" font-size="11" lengthAdjust="spacingAndGlyphs" textLength="208" x="310.5" y="106.8955">void Handle(AssuranceMaladieExpirée evt)</text><!--class GestionnaireNotificationSms--><rect fill="#FEFECE" filter="url(#f1csj6uldt5d5w)" height="61.8359" id="GestionnaireNotificationSms" style="stroke: #A80036; stroke-width: 1.5;" width="196" x="32.5" y="180.6406"/><ellipse cx="50.2" cy="196.6406" fill="#ADD1B2" rx="11" ry="11" style="stroke: #A80036; stroke-width: 1.0;"/><path d="M52.9656,192.5156 Q53.1219,192.2969 53.3094,192.1875 Q53.4969,192.0781 53.7156,192.0781 Q54.0906,192.0781 54.325,192.3359 Q54.5594,192.5938 54.5594,193.2031 L54.5594,194.6563 Q54.5594,195.2656 54.325,195.5313 Q54.0906,195.7969 53.7156,195.7969 Q53.3719,195.7969 53.1688,195.5938 Q52.9656,195.4063 52.8563,194.8906 Q52.8094,194.5313 52.6219,194.3438 Q52.2938,193.9688 51.6844,193.75 Q51.075,193.5313 50.45,193.5313 Q49.6844,193.5313 49.0516,193.8594 Q48.4188,194.1875 47.9266,194.9375 Q47.4344,195.6875 47.4344,196.7188 L47.4344,197.8125 Q47.4344,199.0469 48.325,199.8672 Q49.2156,200.6875 50.8094,200.6875 Q51.7469,200.6875 52.4031,200.4375 Q52.7938,200.2813 53.2156,199.8438 Q53.4813,199.5781 53.6297,199.5 Q53.7781,199.4219 53.9813,199.4219 Q54.3094,199.4219 54.5672,199.6797 Q54.825,199.9375 54.825,200.2813 Q54.825,200.625 54.4813,201.0313 Q53.9813,201.6094 53.1844,201.9375 Q52.1063,202.3906 50.8094,202.3906 Q49.2938,202.3906 48.0906,201.7656 Q47.1063,201.2656 46.4188,200.1953 Q45.7313,199.125 45.7313,197.8438 L45.7313,196.6875 Q45.7313,195.3594 46.3484,194.2109 Q46.9656,193.0625 48.0594,192.4453 Q49.1531,191.8281 50.3875,191.8281 Q51.1219,191.8281 51.7703,191.9922 Q52.4188,192.1563 52.9656,192.5156 Z "/><text fill="#000000" font-family="sans-serif" font-size="12" lengthAdjust="spacingAndGlyphs" textLength="158" x="64.8" y="201.5508">GestionnaireNotificationSms</text><line style="stroke: #A80036; stroke-width: 1.5;" x1="33.5" x2="227.5" y1="212.6406" y2="212.6406"/><line style="stroke: #A80036; stroke-width: 1.5;" x1="33.5" x2="227.5" y1="220.6406" y2="220.6406"/><ellipse cx="43.5" cy="233.0586" fill="#84BE84" rx="3" ry="3" style="stroke: #038048; stroke-width: 1.0;"/><text fill="#000000" font-family="sans-serif" font-size="11" lengthAdjust="spacingAndGlyphs" textLength="170" x="52.5" y="236.0596">void Handle(PatientEnDétresse evt)</text><!--class GestionnaireArchives--><rect fill="#FEFECE" filter="url(#f1csj6uldt5d5w)" height="61.8359" id="GestionnaireArchives" style="stroke: #A80036; stroke-width: 1.5;" width="170" x="263.5" y="180.6406"/><ellipse cx="287.95" cy="196.6406" fill="#ADD1B2" rx="11" ry="11" style="stroke: #A80036; stroke-width: 1.0;"/><path d="M290.7156,192.5156 Q290.8719,192.2969 291.0594,192.1875 Q291.2469,192.0781 291.4656,192.0781 Q291.8406,192.0781 292.075,192.3359 Q292.3094,192.5938 292.3094,193.2031 L292.3094,194.6563 Q292.3094,195.2656 292.075,195.5313 Q291.8406,195.7969 291.4656,195.7969 Q291.1219,195.7969 290.9188,195.5938 Q290.7156,195.4063 290.6063,194.8906 Q290.5594,194.5313 290.3719,194.3438 Q290.0438,193.9688 289.4344,193.75 Q288.825,193.5313 288.2,193.5313 Q287.4344,193.5313 286.8016,193.8594 Q286.1688,194.1875 285.6766,194.9375 Q285.1844,195.6875 285.1844,196.7188 L285.1844,197.8125 Q285.1844,199.0469 286.075,199.8672 Q286.9656,200.6875 288.5594,200.6875 Q289.4969,200.6875 290.1531,200.4375 Q290.5438,200.2813 290.9656,199.8438 Q291.2313,199.5781 291.3797,199.5 Q291.5281,199.4219 291.7313,199.4219 Q292.0594,199.4219 292.3172,199.6797 Q292.575,199.9375 292.575,200.2813 Q292.575,200.625 292.2313,201.0313 Q291.7313,201.6094 290.9344,201.9375 Q289.8563,202.3906 288.5594,202.3906 Q287.0438,202.3906 285.8406,201.7656 Q284.8563,201.2656 284.1688,200.1953 Q283.4813,199.125 283.4813,197.8438 L283.4813,196.6875 Q283.4813,195.3594 284.0984,194.2109 Q284.7156,193.0625 285.8094,192.4453 Q286.9031,191.8281 288.1375,191.8281 Q288.8719,191.8281 289.5203,191.9922 Q290.1688,192.1563 290.7156,192.5156 Z "/><text fill="#000000" font-family="sans-serif" font-size="12" lengthAdjust="spacingAndGlyphs" textLength="117" x="304.05" y="201.5508">GestionnaireArchives</text><line style="stroke: #A80036; stroke-width: 1.5;" x1="264.5" x2="432.5" y1="212.6406" y2="212.6406"/><line style="stroke: #A80036; stroke-width: 1.5;" x1="264.5" x2="432.5" y1="220.6406" y2="220.6406"/><ellipse cx="274.5" cy="233.0586" fill="#84BE84" rx="3" ry="3" style="stroke: #038048; stroke-width: 1.0;"/><text fill="#000000" font-family="sans-serif" font-size="11" lengthAdjust="spacingAndGlyphs" textLength="144" x="283.5" y="236.0596">void Handle(PatientLibéré evt)</text><!--link GestionnaireSqlPatient to GestionnaireNotificationCourriel--><!--link GestionnaireSqlPatient to GestionnaireNotificationSms--><!--link GestionnaireNotificationSms to GestionnaireArchives--><!--
@startuml event-handlers

title Gestionnaires d'événements

class GestionnaireSqlPatient {
  +void Handle(PatientAssignéAuLit evt)
  +void Handle(PatientFacturé evt)
  +void Handle(AssuranceMaladieMiseÀJour evt)
}

class GestionnaireNotificationCourriel {
  +void Handle(PatientFacturé evt)
  +void Handle(AssuranceMaladieExpirée evt)
}

class GestionnaireNotificationSms {
  +void Handle(PatientEnDétresse evt)
}

class GestionnaireArchives {
  +void Handle(PatientLibéré evt)
}

@enduml

PlantUML version 1.2019.03(Sun Mar 10 07:04:44 EDT 2019)
(GPL source distribution)
Java Runtime: Java(TM) SE Runtime Environment
JVM: Java HotSpot(TM) 64-Bit Server VM
Java Version: 1.8.0_181-b13
Operating System: Windows 10
OS Version: 10.0
Default Encoding: Cp1252
Language: en
Country: CA
--></g></svg>