<?xml version="1.0" encoding="UTF-8" standalone="no"?><svg xmlns="http://www.w3.org/2000/svg" xmlns:xlink="http://www.w3.org/1999/xlink" contentScriptType="application/ecmascript" contentStyleType="text/css" height="294px" preserveAspectRatio="none" style="width:526px;height:294px;" version="1.1" viewBox="0 0 526 294" width="526px" zoomAndPan="magnify"><defs><filter height="300%" id="f1ge1uxe0vhus9" width="300%" x="-1" y="-1"><feGaussianBlur result="blurOut" stdDeviation="2.0"/><feColorMatrix in="blurOut" result="blurOut2" type="matrix" values="0 0 0 0 0 0 0 0 0 0 0 0 0 0 0 0 0 0 .4 0"/><feOffset dx="4.0" dy="4.0" in="blurOut2" result="blurOut3"/><feBlend in="SourceGraphic" in2="blurOut3" mode="normal"/></filter></defs><g><text fill="#000000" font-family="sans-serif" font-size="18" lengthAdjust="spacingAndGlyphs" textLength="133" x="200.5" y="18.6855">Aggrégat Patient</text><!--class Patient--><rect fill="#FEFECE" filter="url(#f1ge1uxe0vhus9)" height="89.5078" id="Patient" style="stroke: #A80036; stroke-width: 1.5;" width="213" x="150" y="193.6406"/><ellipse cx="233.25" cy="209.6406" fill="#ADD1B2" rx="11" ry="11" style="stroke: #A80036; stroke-width: 1.0;"/><path d="M236.0156,205.5156 Q236.1719,205.2969 236.3594,205.1875 Q236.5469,205.0781 236.7656,205.0781 Q237.1406,205.0781 237.375,205.3359 Q237.6094,205.5938 237.6094,206.2031 L237.6094,207.6563 Q237.6094,208.2656 237.375,208.5313 Q237.1406,208.7969 236.7656,208.7969 Q236.4219,208.7969 236.2188,208.5938 Q236.0156,208.4063 235.9063,207.8906 Q235.8594,207.5313 235.6719,207.3438 Q235.3438,206.9688 234.7344,206.75 Q234.125,206.5313 233.5,206.5313 Q232.7344,206.5313 232.1016,206.8594 Q231.4688,207.1875 230.9766,207.9375 Q230.4844,208.6875 230.4844,209.7188 L230.4844,210.8125 Q230.4844,212.0469 231.375,212.8672 Q232.2656,213.6875 233.8594,213.6875 Q234.7969,213.6875 235.4531,213.4375 Q235.8438,213.2813 236.2656,212.8438 Q236.5313,212.5781 236.6797,212.5 Q236.8281,212.4219 237.0313,212.4219 Q237.3594,212.4219 237.6172,212.6797 Q237.875,212.9375 237.875,213.2813 Q237.875,213.625 237.5313,214.0313 Q237.0313,214.6094 236.2344,214.9375 Q235.1563,215.3906 233.8594,215.3906 Q232.3438,215.3906 231.1406,214.7656 Q230.1563,214.2656 229.4688,213.1953 Q228.7813,212.125 228.7813,210.8438 L228.7813,209.6875 Q228.7813,208.3594 229.3984,207.2109 Q230.0156,206.0625 231.1094,205.4453 Q232.2031,204.8281 233.4375,204.8281 Q234.1719,204.8281 234.8203,204.9922 Q235.4688,205.1563 236.0156,205.5156 Z "/><text fill="#000000" font-family="sans-serif" font-size="12" lengthAdjust="spacingAndGlyphs" textLength="38" x="253.75" y="214.5508">Patient</text><line style="stroke: #A80036; stroke-width: 1.5;" x1="151" x2="362" y1="225.6406" y2="225.6406"/><ellipse cx="161" cy="238.0586" fill="none" rx="3" ry="3" style="stroke: #038048; stroke-width: 1.0;"/><text fill="#000000" font-family="sans-serif" font-size="11" lengthAdjust="spacingAndGlyphs" textLength="51" x="170" y="241.0596">string Nom</text><line style="stroke: #A80036; stroke-width: 1.5;" x1="151" x2="362" y1="247.4766" y2="247.4766"/><ellipse cx="161" cy="259.8945" fill="#84BE84" rx="3" ry="3" style="stroke: #038048; stroke-width: 1.0;"/><text fill="#000000" font-family="sans-serif" font-size="11" lengthAdjust="spacingAndGlyphs" textLength="187" x="170" y="262.8955">void AssignerAuLit(Id idHopital, Id idLit)</text><ellipse cx="161" cy="273.7305" fill="#84BE84" rx="3" ry="3" style="stroke: #038048; stroke-width: 1.0;"/><text fill="#000000" font-family="sans-serif" font-size="11" lengthAdjust="spacingAndGlyphs" textLength="126" x="170" y="276.7314">void Admettre(Id idHopital)</text><!--class NumeroIndexPatient--><rect fill="#FEFECE" filter="url(#f1ge1uxe0vhus9)" height="75.6719" id="NumeroIndexPatient" style="stroke: #A80036; stroke-width: 1.5;" width="144" x="184.5" y="44.1406"/><ellipse cx="199.5" cy="60.1406" fill="#ADD1B2" rx="11" ry="11" style="stroke: #A80036; stroke-width: 1.0;"/><path d="M202.2656,56.0156 Q202.4219,55.7969 202.6094,55.6875 Q202.7969,55.5781 203.0156,55.5781 Q203.3906,55.5781 203.625,55.8359 Q203.8594,56.0938 203.8594,56.7031 L203.8594,58.1563 Q203.8594,58.7656 203.625,59.0313 Q203.3906,59.2969 203.0156,59.2969 Q202.6719,59.2969 202.4688,59.0938 Q202.2656,58.9063 202.1563,58.3906 Q202.1094,58.0313 201.9219,57.8438 Q201.5938,57.4688 200.9844,57.25 Q200.375,57.0313 199.75,57.0313 Q198.9844,57.0313 198.3516,57.3594 Q197.7188,57.6875 197.2266,58.4375 Q196.7344,59.1875 196.7344,60.2188 L196.7344,61.3125 Q196.7344,62.5469 197.625,63.3672 Q198.5156,64.1875 200.1094,64.1875 Q201.0469,64.1875 201.7031,63.9375 Q202.0938,63.7813 202.5156,63.3438 Q202.7813,63.0781 202.9297,63 Q203.0781,62.9219 203.2813,62.9219 Q203.6094,62.9219 203.8672,63.1797 Q204.125,63.4375 204.125,63.7813 Q204.125,64.125 203.7813,64.5313 Q203.2813,65.1094 202.4844,65.4375 Q201.4063,65.8906 200.1094,65.8906 Q198.5938,65.8906 197.3906,65.2656 Q196.4063,64.7656 195.7188,63.6953 Q195.0313,62.625 195.0313,61.3438 L195.0313,60.1875 Q195.0313,58.8594 195.6484,57.7109 Q196.2656,56.5625 197.3594,55.9453 Q198.4531,55.3281 199.6875,55.3281 Q200.4219,55.3281 201.0703,55.4922 Q201.7188,55.6563 202.2656,56.0156 Z "/><text fill="#000000" font-family="sans-serif" font-size="12" lengthAdjust="spacingAndGlyphs" textLength="112" x="213.5" y="65.0508">NumeroIndexPatient</text><line style="stroke: #A80036; stroke-width: 1.5;" x1="185.5" x2="327.5" y1="76.1406" y2="76.1406"/><ellipse cx="195.5" cy="88.5586" fill="none" rx="3" ry="3" style="stroke: #038048; stroke-width: 1.0;"/><text fill="#000000" font-family="sans-serif" font-size="11" lengthAdjust="spacingAndGlyphs" textLength="51" x="204.5" y="91.5596">Id IdHopital</text><ellipse cx="195.5" cy="102.3945" fill="none" rx="3" ry="3" style="stroke: #038048; stroke-width: 1.0;"/><text fill="#000000" font-family="sans-serif" font-size="11" lengthAdjust="spacingAndGlyphs" textLength="67" x="204.5" y="105.3955">string Numero</text><line style="stroke: #A80036; stroke-width: 1.5;" x1="185.5" x2="327.5" y1="111.8125" y2="111.8125"/><!--class Lit--><rect fill="#FEFECE" filter="url(#f1ge1uxe0vhus9)" height="103.3438" id="Lit" style="stroke: #A80036; stroke-width: 1.5;" width="152" x="363.5" y="30.6406"/><ellipse cx="428.75" cy="46.6406" fill="#ADD1B2" rx="11" ry="11" style="stroke: #A80036; stroke-width: 1.0;"/><path d="M431.5156,42.5156 Q431.6719,42.2969 431.8594,42.1875 Q432.0469,42.0781 432.2656,42.0781 Q432.6406,42.0781 432.875,42.3359 Q433.1094,42.5938 433.1094,43.2031 L433.1094,44.6563 Q433.1094,45.2656 432.875,45.5313 Q432.6406,45.7969 432.2656,45.7969 Q431.9219,45.7969 431.7188,45.5938 Q431.5156,45.4063 431.4063,44.8906 Q431.3594,44.5313 431.1719,44.3438 Q430.8438,43.9688 430.2344,43.75 Q429.625,43.5313 429,43.5313 Q428.2344,43.5313 427.6016,43.8594 Q426.9688,44.1875 426.4766,44.9375 Q425.9844,45.6875 425.9844,46.7188 L425.9844,47.8125 Q425.9844,49.0469 426.875,49.8672 Q427.7656,50.6875 429.3594,50.6875 Q430.2969,50.6875 430.9531,50.4375 Q431.3438,50.2813 431.7656,49.8438 Q432.0313,49.5781 432.1797,49.5 Q432.3281,49.4219 432.5313,49.4219 Q432.8594,49.4219 433.1172,49.6797 Q433.375,49.9375 433.375,50.2813 Q433.375,50.625 433.0313,51.0313 Q432.5313,51.6094 431.7344,51.9375 Q430.6563,52.3906 429.3594,52.3906 Q427.8438,52.3906 426.6406,51.7656 Q425.6563,51.2656 424.9688,50.1953 Q424.2813,49.125 424.2813,47.8438 L424.2813,46.6875 Q424.2813,45.3594 424.8984,44.2109 Q425.5156,43.0625 426.6094,42.4453 Q427.7031,41.8281 428.9375,41.8281 Q429.6719,41.8281 430.3203,41.9922 Q430.9688,42.1563 431.5156,42.5156 Z "/><text fill="#000000" font-family="sans-serif" font-size="12" lengthAdjust="spacingAndGlyphs" textLength="13" x="449.25" y="51.5508">Lit</text><line style="stroke: #A80036; stroke-width: 1.5;" x1="364.5" x2="514.5" y1="62.6406" y2="62.6406"/><ellipse cx="374.5" cy="75.0586" fill="none" rx="3" ry="3" style="stroke: #038048; stroke-width: 1.0;"/><text fill="#000000" font-family="sans-serif" font-size="11" lengthAdjust="spacingAndGlyphs" textLength="51" x="383.5" y="78.0596">Id IdHopital</text><ellipse cx="374.5" cy="88.8945" fill="none" rx="3" ry="3" style="stroke: #038048; stroke-width: 1.0;"/><text fill="#000000" font-family="sans-serif" font-size="11" lengthAdjust="spacingAndGlyphs" textLength="67" x="383.5" y="91.8955">string Numero</text><ellipse cx="374.5" cy="102.7305" fill="none" rx="3" ry="3" style="stroke: #038048; stroke-width: 1.0;"/><text fill="#000000" font-family="sans-serif" font-size="11" lengthAdjust="spacingAndGlyphs" textLength="118" x="383.5" y="105.7314">DateTime OccupeDepuis</text><ellipse cx="374.5" cy="116.5664" fill="none" rx="3" ry="3" style="stroke: #038048; stroke-width: 1.0;"/><text fill="#000000" font-family="sans-serif" font-size="11" lengthAdjust="spacingAndGlyphs" textLength="126" x="383.5" y="119.5674">DateTime? OccupeJusqua</text><line style="stroke: #A80036; stroke-width: 1.5;" x1="364.5" x2="514.5" y1="125.9844" y2="125.9844"/><!--class Prescription--><rect fill="#FEFECE" filter="url(#f1ge1uxe0vhus9)" height="89.5078" id="Prescription" style="stroke: #A80036; stroke-width: 1.5;" width="143" x="6" y="37.1406"/><ellipse cx="41.25" cy="53.1406" fill="#ADD1B2" rx="11" ry="11" style="stroke: #A80036; stroke-width: 1.0;"/><path d="M44.0156,49.0156 Q44.1719,48.7969 44.3594,48.6875 Q44.5469,48.5781 44.7656,48.5781 Q45.1406,48.5781 45.375,48.8359 Q45.6094,49.0938 45.6094,49.7031 L45.6094,51.1563 Q45.6094,51.7656 45.375,52.0313 Q45.1406,52.2969 44.7656,52.2969 Q44.4219,52.2969 44.2188,52.0938 Q44.0156,51.9063 43.9063,51.3906 Q43.8594,51.0313 43.6719,50.8438 Q43.3438,50.4688 42.7344,50.25 Q42.125,50.0313 41.5,50.0313 Q40.7344,50.0313 40.1016,50.3594 Q39.4688,50.6875 38.9766,51.4375 Q38.4844,52.1875 38.4844,53.2188 L38.4844,54.3125 Q38.4844,55.5469 39.375,56.3672 Q40.2656,57.1875 41.8594,57.1875 Q42.7969,57.1875 43.4531,56.9375 Q43.8438,56.7813 44.2656,56.3438 Q44.5313,56.0781 44.6797,56 Q44.8281,55.9219 45.0313,55.9219 Q45.3594,55.9219 45.6172,56.1797 Q45.875,56.4375 45.875,56.7813 Q45.875,57.125 45.5313,57.5313 Q45.0313,58.1094 44.2344,58.4375 Q43.1563,58.8906 41.8594,58.8906 Q40.3438,58.8906 39.1406,58.2656 Q38.1563,57.7656 37.4688,56.6953 Q36.7813,55.625 36.7813,54.3438 L36.7813,53.1875 Q36.7813,51.8594 37.3984,50.7109 Q38.0156,49.5625 39.1094,48.9453 Q40.2031,48.3281 41.4375,48.3281 Q42.1719,48.3281 42.8203,48.4922 Q43.4688,48.6563 44.0156,49.0156 Z "/><text fill="#000000" font-family="sans-serif" font-size="12" lengthAdjust="spacingAndGlyphs" textLength="66" x="59.75" y="58.0508">Prescription</text><line style="stroke: #A80036; stroke-width: 1.5;" x1="7" x2="148" y1="69.1406" y2="69.1406"/><ellipse cx="17" cy="81.5586" fill="none" rx="3" ry="3" style="stroke: #038048; stroke-width: 1.0;"/><text fill="#000000" font-family="sans-serif" font-size="11" lengthAdjust="spacingAndGlyphs" textLength="76" x="26" y="84.5596">Id IdMedicament</text><ellipse cx="17" cy="95.3945" fill="none" rx="3" ry="3" style="stroke: #038048; stroke-width: 1.0;"/><text fill="#000000" font-family="sans-serif" font-size="11" lengthAdjust="spacingAndGlyphs" textLength="67" x="26" y="98.3955">Unite Quantite</text><ellipse cx="17" cy="109.2305" fill="none" rx="3" ry="3" style="stroke: #038048; stroke-width: 1.0;"/><text fill="#000000" font-family="sans-serif" font-size="11" lengthAdjust="spacingAndGlyphs" textLength="117" x="26" y="112.2314">Recurrence Recurrence</text><line style="stroke: #A80036; stroke-width: 1.5;" x1="7" x2="148" y1="118.6484" y2="118.6484"/><!--link Lit to Patient--><path d="M379.579,133.7296 C360.139,150.1416 338.532,168.3846 318.915,184.946 " fill="none" id="Lit-Patient" style="stroke: #A80036; stroke-width: 1.0;"/><polygon fill="#A80036" points="308.86,193.435,316.025,192.6207,318.029,185.6936,310.864,186.508,308.86,193.435" style="stroke: #A80036; stroke-width: 1.0;"/><text fill="#000000" font-family="sans-serif" font-size="13" lengthAdjust="spacingAndGlyphs" textLength="5" x="365.801" y="155.605">*</text><text fill="#000000" font-family="sans-serif" font-size="13" lengthAdjust="spacingAndGlyphs" textLength="7" x="309.3417" y="182.8472">1</text><!--link NumeroIndexPatient to Patient--><path d="M256.5,120.1476 C256.5,138.1496 256.5,160.1966 256.5,180.3096 " fill="none" id="NumeroIndexPatient-Patient" style="stroke: #A80036; stroke-width: 1.0;"/><polygon fill="#A80036" points="256.5,193.5182,260.5,187.5182,256.5,181.5182,252.5,187.5182,256.5,193.5182" style="stroke: #A80036; stroke-width: 1.0;"/><text fill="#000000" font-family="sans-serif" font-size="13" lengthAdjust="spacingAndGlyphs" textLength="5" x="251.0859" y="141.3189">*</text><text fill="#000000" font-family="sans-serif" font-size="13" lengthAdjust="spacingAndGlyphs" textLength="7" x="248.9641" y="182.944">1</text><!--link Prescription to Patient--><path d="M128.794,127.4136 C149.574,145.3496 173.737,166.2056 195.417,184.9185 " fill="none" id="Prescription-Patient" style="stroke: #A80036; stroke-width: 1.0;"/><polygon fill="#A80036" points="205.508,193.6279,203.5797,186.6794,196.4241,185.7869,198.3523,192.7354,205.508,193.6279" style="stroke: #A80036; stroke-width: 1.0;"/><text fill="#000000" font-family="sans-serif" font-size="13" lengthAdjust="spacingAndGlyphs" textLength="5" x="130.3507" y="148.124">*</text><text fill="#000000" font-family="sans-serif" font-size="13" lengthAdjust="spacingAndGlyphs" textLength="7" x="189.8233" y="182.741">1</text><!--
@startuml patient-aggregate

title Aggrégat Patient

class Patient {
  +string Nom
  +void AssignerAuLit(Id idHopital, Id idLit)
  +void Admettre(Id idHopital)
}

class NumeroIndexPatient {
    +Id IdHopital
    +string Numero
}

class Lit {
    +Id IdHopital
    +string Numero
    +DateTime OccupeDepuis
    +DateTime? OccupeJusqua
}

class Prescription {
    +Id IdMedicament
    +Unite Quantite
    +Recurrence Recurrence
}

Patient "1" *-up- "*" Lit
Patient "1" *-up- "*" NumeroIndexPatient
Patient "1" *-up- "*" Prescription

@enduml

PlantUML version 1.2019.03(Sun Mar 10 07:04:44 EDT 2019)
(GPL source distribution)
Java Runtime: Java(TM) SE Runtime Environment
JVM: Java HotSpot(TM) 64-Bit Server VM
Java Version: 1.8.0_181-b13
Operating System: Windows 10
OS Version: 10.0
Default Encoding: Cp1252
Language: en
Country: CA
--></g></svg>