<?xml version="1.0" encoding="UTF-8" standalone="no"?><svg xmlns="http://www.w3.org/2000/svg" xmlns:xlink="http://www.w3.org/1999/xlink" contentScriptType="application/ecmascript" contentStyleType="text/css" height="867px" preserveAspectRatio="none" style="width:1734px;height:867px;" version="1.1" viewBox="0 0 1734 867" width="1734px" zoomAndPan="magnify"><defs><filter height="300%" id="f5ty3ll5bvxmk" width="300%" x="-1" y="-1"><feGaussianBlur result="blurOut" stdDeviation="2.0"/><feColorMatrix in="blurOut" result="blurOut2" type="matrix" values="0 0 0 0 0 0 0 0 0 0 0 0 0 0 0 0 0 0 .4 0"/><feOffset dx="4.0" dy="4.0" in="blurOut2" result="blurOut3"/><feBlend in="SourceGraphic" in2="blurOut3" mode="normal"/></filter></defs><g><!--cluster Nouveau Code--><rect fill="#FFFFFF" filter="url(#f5ty3ll5bvxmk)" height="728.5" style="stroke: #000000; stroke-width: 1.5;" width="1162" x="22" y="24.5"/><text fill="#000000" font-family="sans-serif" font-size="30" font-weight="bold" lengthAdjust="spacingAndGlyphs" textLength="210" x="498" y="57.6426">Nouveau Code</text><!--cluster UI--><rect fill="#FFFFFF" filter="url(#f5ty3ll5bvxmk)" height="142" style="stroke: #000000; stroke-width: 1.5;" width="657" x="274" y="88.5"/><text fill="#000000" font-family="sans-serif" font-size="30" font-weight="bold" lengthAdjust="spacingAndGlyphs" textLength="30" x="587.5" y="121.6426">UI</text><!--cluster Modernité maximale--><rect fill="#FFFFFF" filter="url(#f5ty3ll5bvxmk)" height="256.5" style="stroke: #000000; stroke-width: 1.5;" width="394" x="402" y="291.5"/><text fill="#000000" font-family="sans-serif" font-size="30" font-weight="bold" lengthAdjust="spacingAndGlyphs" textLength="287" x="455.5" y="324.6426">Modernité maximale</text><!--cluster Code Legacy--><rect fill="#FFFFFF" filter="url(#f5ty3ll5bvxmk)" height="131" style="stroke: #000000; stroke-width: 1.5;" width="515" x="1208" y="619.5"/><text fill="#000000" font-family="sans-serif" font-size="30" font-weight="bold" lengthAdjust="spacingAndGlyphs" textLength="186" x="1372.5" y="652.6426">Code Legacy</text><ellipse cx="211.9802" cy="705.1822" fill="#FEFECE" filter="url(#f5ty3ll5bvxmk)" rx="110.4802" ry="29.6822" style="stroke: #A80036; stroke-width: 1.5;"/><text fill="#000000" font-family="sans-serif" font-size="30" font-weight="bold" lengthAdjust="spacingAndGlyphs" textLength="152" x="135.9802" y="720.5494">BD NoSQL</text><ellipse cx="211.8962" cy="504.6792" fill="#FEFECE" filter="url(#f5ty3ll5bvxmk)" rx="173.8962" ry="37.1792" style="stroke: #A80036; stroke-width: 1.5;"/><text fill="#000000" font-family="sans-serif" font-size="30" font-weight="bold" lengthAdjust="spacingAndGlyphs" textLength="285" x="69.3962" y="520.0464">Gestionnaire Offline</text><ellipse cx="990.1662" cy="504.4332" fill="#FEFECE" filter="url(#f5ty3ll5bvxmk)" rx="177.6662" ry="37.9332" style="stroke: #A80036; stroke-width: 1.5;"/><text fill="#000000" font-family="sans-serif" font-size="30" font-weight="bold" lengthAdjust="spacingAndGlyphs" textLength="294" x="843.1662" y="519.8004">Gestionnaire Legacy</text><ellipse cx="920.9112" cy="704.9822" fill="#FEFECE" filter="url(#f5ty3ll5bvxmk)" rx="147.9112" ry="31.9822" style="stroke: #A80036; stroke-width: 1.5;"/><text fill="#000000" font-family="sans-serif" font-size="30" font-weight="bold" lengthAdjust="spacingAndGlyphs" textLength="220" x="810.9112" y="720.3494">Gestionnaire BI</text><ellipse cx="453.2171" cy="179.5434" fill="#FEFECE" filter="url(#f5ty3ll5bvxmk)" rx="163.2171" ry="35.0434" style="stroke: #A80036; stroke-width: 1.5;"/><text fill="#000000" font-family="sans-serif" font-size="30" font-weight="bold" lengthAdjust="spacingAndGlyphs" textLength="259" x="323.7171" y="194.9106">Nouvelle Interface</text><ellipse cx="783.1934" cy="179.6822" fill="#FEFECE" filter="url(#f5ty3ll5bvxmk)" rx="131.6934" ry="29.6822" style="stroke: #A80036; stroke-width: 1.5;"/><text fill="#000000" font-family="sans-serif" font-size="30" font-weight="bold" lengthAdjust="spacingAndGlyphs" textLength="182" x="692.1934" y="195.0494">Nouvelle API</text><ellipse cx="468.169" cy="377.1822" fill="#FEFECE" filter="url(#f5ty3ll5bvxmk)" rx="49.669" ry="29.6822" style="stroke: #A80036; stroke-width: 1.5;"/><text fill="#000000" font-family="sans-serif" font-size="30" font-weight="bold" lengthAdjust="spacingAndGlyphs" textLength="66" x="435.169" y="392.5494">DDD</text><ellipse cx="704.9226" cy="504.738" fill="#FEFECE" filter="url(#f5ty3ll5bvxmk)" rx="33.9226" ry="27.738" style="stroke: #A80036; stroke-width: 1.5;"/><text fill="#000000" font-family="sans-serif" font-size="30" font-weight="bold" lengthAdjust="spacingAndGlyphs" textLength="40" x="684.9226" y="520.1052">ES</text><ellipse cx="665.8087" cy="377.1822" fill="#FEFECE" filter="url(#f5ty3ll5bvxmk)" rx="113.3087" ry="29.6822" style="stroke: #A80036; stroke-width: 1.5;"/><text fill="#000000" font-family="sans-serif" font-size="30" font-weight="bold" lengthAdjust="spacingAndGlyphs" textLength="156" x="587.8087" y="392.5494">Repository</text><ellipse cx="1335.8944" cy="705.1822" fill="#FEFECE" filter="url(#f5ty3ll5bvxmk)" rx="111.8944" ry="29.6822" style="stroke: #A80036; stroke-width: 1.5;"/><text fill="#000000" font-family="sans-serif" font-size="30" font-weight="bold" lengthAdjust="spacingAndGlyphs" textLength="154" x="1258.8944" y="720.5494">BD Legacy</text><ellipse cx="1594.8944" cy="705.1822" fill="#FEFECE" filter="url(#f5ty3ll5bvxmk)" rx="111.8944" ry="29.6822" style="stroke: #A80036; stroke-width: 1.5;"/><text fill="#000000" font-family="sans-serif" font-size="30" font-weight="bold" lengthAdjust="spacingAndGlyphs" textLength="154" x="1517.8944" y="720.5494">Intégration</text><ellipse cx="921.1838" cy="826.6822" fill="#FEFECE" filter="url(#f5ty3ll5bvxmk)" rx="41.1838" ry="29.6822" style="stroke: #A80036; stroke-width: 1.5;"/><text fill="#000000" font-family="sans-serif" font-size="30" font-weight="bold" lengthAdjust="spacingAndGlyphs" textLength="54" x="894.1838" y="842.0494">???</text><!--link DDD to Repository--><path d="M517.5,377 C527.379,377 537.259,377 547.138,377 " fill="none" id="DDD-Repository" style="stroke: #A80036; stroke-width: 2.0;"/><polygon fill="#A80036" points="552.305,377,543.305,373,547.305,377,543.305,381,552.305,377" style="stroke: #A80036; stroke-width: 2.0;"/><!--link Repository to LegacyDB--><path d="M773.872,386.177 C905.403,397.884 1118.32,422.962 1184,466.5 C1259.3,516.414 1305.03,617.787 1324.69,670.487 " fill="none" id="Repository-LegacyDB" style="stroke: #A80036; stroke-width: 2.0;"/><polygon fill="#A80036" points="1326.51,675.432,1327.1479,665.6038,1324.7795,670.741,1319.6423,668.3726,1326.51,675.432" style="stroke: #A80036; stroke-width: 2.0;"/><!--link Repository to ES--><path d="M674.85,406.478 C680.982,426.212 689.142,452.47 695.426,472.692 " fill="none" id="Repository-ES" style="stroke: #A80036; stroke-width: 2.0;"/><polygon fill="#A80036" points="696.981,477.696,698.1296,467.9143,695.497,472.9213,690.4901,470.2887,696.981,477.696" style="stroke: #A80036; stroke-width: 2.0;"/><!--link ES to LEH--><path d="M739.233,504.5 C761.849,504.5 784.464,504.5 807.079,504.5 " fill="none" id="ES-LEH" style="stroke: #A80036; stroke-width: 2.0;"/><polygon fill="#A80036" points="812.21,504.5,803.21,500.5,807.21,504.5,803.21,508.5,812.21,504.5" style="stroke: #A80036; stroke-width: 2.0;"/><!--link OEH to ES--><path d="M391.284,504.5 C484.443,504.5 577.603,504.5 670.763,504.5 " fill="none" id="OEH-ES" style="stroke: #A80036; stroke-width: 2.0;"/><polygon fill="#A80036" points="386.283,504.5,395.283,508.5,391.283,504.5,395.283,500.5,386.283,504.5" style="stroke: #A80036; stroke-width: 2.0;"/><!--link ES to BIEH--><path d="M720.957,529.03 C727.382,537.854 735.129,547.738 743,556 C784.456,599.519 838.222,642.699 875.768,671.086 " fill="none" id="ES-BIEH" style="stroke: #A80036; stroke-width: 1.0;"/><polygon fill="#A80036" points="879.806,674.129,875.0252,665.5183,875.8127,671.1201,870.2109,671.9076,879.806,674.129" style="stroke: #A80036; stroke-width: 1.0;"/><!--link LEH to LegacyDB--><path d="M1055.09,540.085 C1092.95,560.446 1141.45,586.946 1184,611.5 C1219.7,632.102 1259.48,656.359 1289.39,674.862 " fill="none" id="LEH-LegacyDB" style="stroke: #A80036; stroke-width: 1.0;"/><polygon fill="#A80036" points="1293.73,677.549,1288.1785,669.4138,1289.4772,674.9196,1283.9715,676.2183,1293.73,677.549" style="stroke: #A80036; stroke-width: 1.0;"/><!--link NewUI to NewAPI--><path d="M616.066,179.5 C626.062,179.5 636.057,179.5 646.052,179.5 " fill="none" id="NewUI-NewAPI" style="stroke: #A80036; stroke-width: 1.0;"/><polygon fill="#A80036" points="651.279,179.5,642.279,175.5,646.279,179.5,642.279,183.5,651.279,179.5" style="stroke: #A80036; stroke-width: 1.0;"/><!--link NewAPI to DDD--><path d="M718.225,205.292 C649.95,231.757 550.18,271.504 535,283.5 C514.173,299.96 496.806,324.501 484.976,344.169 " fill="none" id="NewAPI-DDD" style="stroke: #A80036; stroke-width: 1.0;"/><polygon fill="#A80036" points="482.387,348.543,490.4123,342.8339,484.933,344.2397,483.5271,338.7604,482.387,348.543" style="stroke: #A80036; stroke-width: 1.0;"/><!--link OEH to NewDB--><path d="M212,541.908 C212,578.498 212,634.448 212,670.115 " fill="none" id="OEH-NewDB" style="stroke: #A80036; stroke-width: 1.0;"/><polygon fill="#A80036" points="212,675.226,216,666.226,212,670.226,208,666.226,212,675.226" style="stroke: #A80036; stroke-width: 1.0;"/><!--link BIEH to LegacyDB--><path d="M1069.33,705 C1119.1,705 1168.86,705 1218.63,705 " fill="none" id="BIEH-LegacyDB" style="stroke: #A80036; stroke-width: 1.0;"/><polygon fill="#A80036" points="1223.76,705,1214.76,701,1218.76,705,1214.76,709,1223.76,705" style="stroke: #A80036; stroke-width: 1.0;"/><!--link Intégration to NewAPI--><path d="M1563.96,676.433 C1527.52,640.867 1472,575.231 1472,505.5 C1472,376 1472,376 1472,376 C1472,260.687 1110.31,209.843 911.044,190.581 " fill="none" id="Intégration-NewAPI" style="stroke: #A80036; stroke-width: 1.0;"/><polygon fill="#A80036" points="905.782,190.076,914.3578,194.919,910.759,190.5546,915.1235,186.9558,905.782,190.076" style="stroke: #A80036; stroke-width: 1.0;"/><!--link BIEH to ???--><path d="M921,737.085 C921,753.756 921,774.3281 921,791.4324 " fill="none" id="BIEH-???" style="stroke: #A80036; stroke-width: 2.0;"/><polygon fill="#A80036" points="921,796.6212,925,787.6212,921,791.6212,917,787.6212,921,796.6212" style="stroke: #A80036; stroke-width: 2.0;"/><!--
@startuml new-architecture

skinparam default {
  FontStyle bold
	FontSize 30
}

rectangle "Nouveau Code" {
    rectangle "UI" {
      (Nouvelle Interface) as NewUI
      (Nouvelle API) as NewAPI
    }
    database (BD NoSQL) as NewDB
    rectangle "Modernité maximale" {
      (DDD)
      (ES)
      (Repository)
    }
    (Gestionnaire Offline) as OEH
    (Gestionnaire Legacy) as LEH
    (Gestionnaire BI) as BIEH
}

rectangle "Code Legacy" {
    (BD Legacy) as LegacyDB
    (Intégration)
}

DDD =right=> Repository
Repository =right=> LegacyDB
Repository =down=> ES
ES => LEH
ES =left=> OEH
ES - - -> BIEH
LEH - - -> LegacyDB
NewUI -right-> NewAPI
NewAPI - - -> DDD
OEH - - -> NewDB
BIEH - - -> LegacyDB
Intégration - - -> NewAPI
BIEH ==> (???)
@enduml

PlantUML version 1.2019.03(Sun Mar 10 07:04:44 EDT 2019)
(GPL source distribution)
Java Runtime: Java(TM) SE Runtime Environment
JVM: Java HotSpot(TM) 64-Bit Server VM
Java Version: 1.8.0_181-b13
Operating System: Windows 10
OS Version: 10.0
Default Encoding: Cp1252
Language: en
Country: CA
--></g></svg>