<?xml version="1.0" encoding="UTF-8" standalone="no"?><svg xmlns="http://www.w3.org/2000/svg" xmlns:xlink="http://www.w3.org/1999/xlink" contentScriptType="application/ecmascript" contentStyleType="text/css" height="275px" preserveAspectRatio="none" style="width:850px;height:275px;" version="1.1" viewBox="0 0 850 275" width="850px" zoomAndPan="magnify"><defs><filter height="300%" id="fpnpr07g60f1t" width="300%" x="-1" y="-1"><feGaussianBlur result="blurOut" stdDeviation="2.0"/><feColorMatrix in="blurOut" result="blurOut2" type="matrix" values="0 0 0 0 0 0 0 0 0 0 0 0 0 0 0 0 0 0 .4 0"/><feOffset dx="4.0" dy="4.0" in="blurOut2" result="blurOut3"/><feBlend in="SourceGraphic" in2="blurOut3" mode="normal"/></filter></defs><g><text fill="#000000" font-family="sans-serif" font-size="18" lengthAdjust="spacingAndGlyphs" textLength="185" x="336.5" y="18.6855">Événements du Patient</text><!--entity PatientCréé--><rect fill="#FEFECE" filter="url(#fpnpr07g60f1t)" height="37.6094" style="stroke: #000000; stroke-width: 1.5;" width="95" x="32" y="30.6406"/><text fill="#000000" font-family="sans-serif" font-size="14" lengthAdjust="spacingAndGlyphs" textLength="75" x="42" y="55.1738">PatientCréé</text><!--entity PatientAdmis--><rect fill="#FEFECE" filter="url(#fpnpr07g60f1t)" height="37.6094" style="stroke: #000000; stroke-width: 1.5;" width="102" x="28.5" y="128.6406"/><text fill="#000000" font-family="sans-serif" font-size="14" lengthAdjust="spacingAndGlyphs" textLength="82" x="38.5" y="153.1738">PatientAdmis</text><!--entity PA2--><rect fill="#FEFECE" filter="url(#fpnpr07g60f1t)" height="37.6094" style="stroke: #000000; stroke-width: 1.5;" width="102" x="362.5" y="30.6406"/><text fill="#000000" font-family="sans-serif" font-size="14" lengthAdjust="spacingAndGlyphs" textLength="82" x="372.5" y="55.1738">PatientAdmis</text><!--entity PatientDiagnostiqué--><rect fill="#FEFECE" filter="url(#fpnpr07g60f1t)" height="37.6094" style="stroke: #000000; stroke-width: 1.5;" width="147" x="6" y="226.6406"/><text fill="#000000" font-family="sans-serif" font-size="14" lengthAdjust="spacingAndGlyphs" textLength="127" x="16" y="251.1738">PatientDiagnostiqué</text><!--entity PD2--><rect fill="#FEFECE" filter="url(#fpnpr07g60f1t)" height="37.6094" style="stroke: #000000; stroke-width: 1.5;" width="147" x="347" y="128.6406"/><text fill="#000000" font-family="sans-serif" font-size="14" lengthAdjust="spacingAndGlyphs" textLength="127" x="357" y="153.1738">PatientDiagnostiqué</text><!--entity PrescriptionÉmise--><rect fill="#FEFECE" filter="url(#fpnpr07g60f1t)" height="37.6094" style="stroke: #000000; stroke-width: 1.5;" width="133" x="188" y="226.6406"/><text fill="#000000" font-family="sans-serif" font-size="14" lengthAdjust="spacingAndGlyphs" textLength="113" x="198" y="251.1738">PrescriptionÉmise</text><!--entity PE2--><rect fill="#FEFECE" filter="url(#fpnpr07g60f1t)" height="37.6094" style="stroke: #000000; stroke-width: 1.5;" width="133" x="356" y="226.6406"/><text fill="#000000" font-family="sans-serif" font-size="14" lengthAdjust="spacingAndGlyphs" textLength="113" x="366" y="251.1738">PrescriptionÉmise</text><!--entity FactureÉmise--><rect fill="#FEFECE" filter="url(#fpnpr07g60f1t)" height="37.6094" style="stroke: #000000; stroke-width: 1.5;" width="107" x="202" y="128.6406"/><text fill="#000000" font-family="sans-serif" font-size="14" lengthAdjust="spacingAndGlyphs" textLength="87" x="212" y="153.1738">FactureÉmise</text><!--entity PatientLibéré--><rect fill="#FEFECE" filter="url(#fpnpr07g60f1t)" height="37.6094" style="stroke: #000000; stroke-width: 1.5;" width="104" x="210.5" y="30.6406"/><text fill="#000000" font-family="sans-serif" font-size="14" lengthAdjust="spacingAndGlyphs" textLength="84" x="220.5" y="55.1738">PatientLibéré</text><!--entity PL2--><rect fill="#FEFECE" filter="url(#fpnpr07g60f1t)" height="37.6094" style="stroke: #000000; stroke-width: 1.5;" width="104" x="524.5" y="226.6406"/><text fill="#000000" font-family="sans-serif" font-size="14" lengthAdjust="spacingAndGlyphs" textLength="84" x="534.5" y="251.1738">PatientLibéré</text><!--entity AssuranceMaladieÉchue--><rect fill="#FEFECE" filter="url(#fpnpr07g60f1t)" height="37.6094" style="stroke: #000000; stroke-width: 1.5;" width="176" x="663.5" y="226.6406"/><text fill="#000000" font-family="sans-serif" font-size="14" lengthAdjust="spacingAndGlyphs" textLength="156" x="673.5" y="251.1738">AssuranceMaladieÉchue</text><!--link PatientCréé to PatientAdmis--><path d="M79.5,68.6976 C79.5,84.1536 79.5,106.5056 79.5,123.3136 " fill="none" id="PatientCréé-PatientAdmis" style="stroke: #A80036; stroke-width: 1.0;"/><polygon fill="#A80036" points="79.5,128.3386,83.5,119.3386,79.5,123.3386,75.5,119.3386,79.5,128.3386" style="stroke: #A80036; stroke-width: 1.0;"/><!--link PatientAdmis to PatientDiagnostiqué--><path d="M79.5,166.6975 C79.5,182.1532 79.5,204.5053 79.5,221.3137 " fill="none" id="PatientAdmis-PatientDiagnostiqué" style="stroke: #A80036; stroke-width: 1.0;"/><polygon fill="#A80036" points="79.5,226.3383,83.5,217.3383,79.5,221.3383,75.5,217.3383,79.5,226.3383" style="stroke: #A80036; stroke-width: 1.0;"/><!--link PatientDiagnostiqué to PrescriptionÉmise--><path d="M153.328,245.6406 C163.088,245.6406 172.847,245.6406 182.607,245.6406 " fill="none" id="PatientDiagnostiqué-PrescriptionÉmise" style="stroke: #A80036; stroke-width: 1.0;"/><polygon fill="#A80036" points="187.711,245.6406,178.711,241.6406,182.711,245.6406,178.711,249.6406,187.711,245.6406" style="stroke: #A80036; stroke-width: 1.0;"/><!--link FactureÉmise to PrescriptionÉmise--><path d="M255.26,171.7017 C255.085,188.4512 254.852,210.81 254.691,226.3383 " fill="none" id="FactureÉmise-PrescriptionÉmise" style="stroke: #A80036; stroke-width: 1.0;"/><polygon fill="#A80036" points="255.312,166.6975,251.2181,175.6552,255.2597,171.6973,259.2177,175.7389,255.312,166.6975" style="stroke: #A80036; stroke-width: 1.0;"/><!--link PatientLibéré to FactureÉmise--><path d="M260.818,73.7016 C259.597,90.4516 257.967,112.8096 256.835,128.3386 " fill="none" id="PatientLibéré-FactureÉmise" style="stroke: #A80036; stroke-width: 1.0;"/><polygon fill="#A80036" points="261.183,68.6976,256.538,77.3823,260.8187,73.6843,264.5167,77.9651,261.183,68.6976" style="stroke: #A80036; stroke-width: 1.0;"/><!--link PatientLibéré to PA2--><path d="M314.701,49.6406 C328.794,49.6406 342.886,49.6406 356.979,49.6406 " fill="none" id="PatientLibéré-PA2" style="stroke: #A80036; stroke-width: 1.0;"/><polygon fill="#A80036" points="362.171,49.6406,353.171,45.6406,357.171,49.6406,353.171,53.6406,362.171,49.6406" style="stroke: #A80036; stroke-width: 1.0;"/><!--link PA2 to PD2--><path d="M414.817,68.6976 C415.944,84.1536 417.573,106.5056 418.799,123.3136 " fill="none" id="PA2-PD2" style="stroke: #A80036; stroke-width: 1.0;"/><polygon fill="#A80036" points="419.165,128.3386,422.5014,119.0721,418.8022,123.3518,414.5224,119.6526,419.165,128.3386" style="stroke: #A80036; stroke-width: 1.0;"/><!--link PD2 to PE2--><path d="M420.876,166.6975 C421.198,182.1532 421.664,204.5053 422.014,221.3137 " fill="none" id="PD2-PE2" style="stroke: #A80036; stroke-width: 1.0;"/><polygon fill="#A80036" points="422.119,226.3383,425.9304,217.2568,422.0147,221.3394,417.9321,217.4237,422.119,226.3383" style="stroke: #A80036; stroke-width: 1.0;"/><!--link PE2 to PL2--><path d="M489.273,245.6406 C499.235,245.6406 509.197,245.6406 519.159,245.6406 " fill="none" id="PE2-PL2" style="stroke: #A80036; stroke-width: 1.0;"/><polygon fill="#A80036" points="524.368,245.6406,515.368,241.6406,519.368,245.6406,515.368,249.6406,524.368,245.6406" style="stroke: #A80036; stroke-width: 1.0;"/><!--link PL2 to AssuranceMaladieÉchue--><path d="M628.795,245.6406 C638.591,245.6406 648.387,245.6406 658.183,245.6406 " fill="none" id="PL2-AssuranceMaladieÉchue" style="stroke: #A80036; stroke-width: 1.0;"/><polygon fill="#A80036" points="663.306,245.6406,654.306,241.6406,658.306,245.6406,654.306,249.6406,663.306,245.6406" style="stroke: #A80036; stroke-width: 1.0;"/><!--
@startuml patient-events

title Événements du Patient

rectangle PatientCréé
rectangle PatientAdmis
rectangle "PatientAdmis" as PA2
rectangle PatientDiagnostiqué
rectangle "PatientDiagnostiqué" as PD2
rectangle PrescriptionÉmise
rectangle "PrescriptionÉmise" as PE2
rectangle FactureÉmise
rectangle PatientLibéré
rectangle "PatientLibéré" as PL2
rectangle AssuranceMaladieÉchue

PatientCréé -down-> PatientAdmis
PatientAdmis -down-> PatientDiagnostiqué
PatientDiagnostiqué -right-> PrescriptionÉmise
PrescriptionÉmise -up-> FactureÉmise
FactureÉmise -up-> PatientLibéré
PatientLibéré -right-> PA2
PA2 -down-> PD2
PD2 -down-> PE2
PE2 -right-> PL2
PL2 -right-> AssuranceMaladieÉchue

@enduml

PlantUML version 1.2019.03(Sun Mar 10 07:04:44 EDT 2019)
(GPL source distribution)
Java Runtime: Java(TM) SE Runtime Environment
JVM: Java HotSpot(TM) 64-Bit Server VM
Java Version: 1.8.0_181-b13
Operating System: Windows 10
OS Version: 10.0
Default Encoding: Cp1252
Language: en
Country: CA
--></g></svg>