<?xml version="1.0" encoding="UTF-8" standalone="no"?><svg xmlns="http://www.w3.org/2000/svg" xmlns:xlink="http://www.w3.org/1999/xlink" contentScriptType="application/ecmascript" contentStyleType="text/css" height="362px" preserveAspectRatio="none" style="width:669px;height:362px;" version="1.1" viewBox="0 0 669 362" width="669px" zoomAndPan="magnify"><defs><filter height="300%" id="fqmle1582gpnd" width="300%" x="-1" y="-1"><feGaussianBlur result="blurOut" stdDeviation="2.0"/><feColorMatrix in="blurOut" result="blurOut2" type="matrix" values="0 0 0 0 0 0 0 0 0 0 0 0 0 0 0 0 0 0 .4 0"/><feOffset dx="4.0" dy="4.0" in="blurOut2" result="blurOut3"/><feBlend in="SourceGraphic" in2="blurOut3" mode="normal"/></filter></defs><g><text fill="#000000" font-family="sans-serif" font-size="18" lengthAdjust="spacingAndGlyphs" textLength="133" x="280" y="18.6855">Aggrégat Patient</text><!--cluster Aggrégat Patient--><rect fill="#FFFFFF" filter="url(#fqmle1582gpnd)" height="305" style="stroke: #000000; stroke-width: 1.5;" width="542" x="116.5" y="46.6406"/><text fill="#000000" font-family="sans-serif" font-size="14" font-weight="bold" lengthAdjust="spacingAndGlyphs" textLength="117" x="329" y="63.1738">Aggrégat Patient</text><!--class Patient--><rect fill="#FF9900" filter="url(#fqmle1582gpnd)" height="89.5078" id="Patient" style="stroke: #A80036; stroke-width: 1.5;" width="213" x="209" y="245.6406"/><rect fill="#FF9900" height="32" style="stroke: #A80036; stroke-width: 1.5;" width="213" x="209" y="245.6406"/><ellipse cx="292.25" cy="261.6406" fill="#ADD1B2" rx="11" ry="11" style="stroke: #A80036; stroke-width: 1.0;"/><path d="M295.0156,257.5156 Q295.1719,257.2969 295.3594,257.1875 Q295.5469,257.0781 295.7656,257.0781 Q296.1406,257.0781 296.375,257.3359 Q296.6094,257.5938 296.6094,258.2031 L296.6094,259.6563 Q296.6094,260.2656 296.375,260.5313 Q296.1406,260.7969 295.7656,260.7969 Q295.4219,260.7969 295.2188,260.5938 Q295.0156,260.4063 294.9063,259.8906 Q294.8594,259.5313 294.6719,259.3438 Q294.3438,258.9688 293.7344,258.75 Q293.125,258.5313 292.5,258.5313 Q291.7344,258.5313 291.1016,258.8594 Q290.4688,259.1875 289.9766,259.9375 Q289.4844,260.6875 289.4844,261.7188 L289.4844,262.8125 Q289.4844,264.0469 290.375,264.8672 Q291.2656,265.6875 292.8594,265.6875 Q293.7969,265.6875 294.4531,265.4375 Q294.8438,265.2813 295.2656,264.8438 Q295.5313,264.5781 295.6797,264.5 Q295.8281,264.4219 296.0313,264.4219 Q296.3594,264.4219 296.6172,264.6797 Q296.875,264.9375 296.875,265.2813 Q296.875,265.625 296.5313,266.0313 Q296.0313,266.6094 295.2344,266.9375 Q294.1563,267.3906 292.8594,267.3906 Q291.3438,267.3906 290.1406,266.7656 Q289.1563,266.2656 288.4688,265.1953 Q287.7813,264.125 287.7813,262.8438 L287.7813,261.6875 Q287.7813,260.3594 288.3984,259.2109 Q289.0156,258.0625 290.1094,257.4453 Q291.2031,256.8281 292.4375,256.8281 Q293.1719,256.8281 293.8203,256.9922 Q294.4688,257.1563 295.0156,257.5156 Z "/><text fill="#000000" font-family="sans-serif" font-size="12" lengthAdjust="spacingAndGlyphs" textLength="38" x="312.75" y="266.5508">Patient</text><line style="stroke: #A80036; stroke-width: 1.5;" x1="210" x2="421" y1="277.6406" y2="277.6406"/><ellipse cx="220" cy="290.0586" fill="none" rx="3" ry="3" style="stroke: #038048; stroke-width: 1.0;"/><text fill="#000000" font-family="sans-serif" font-size="11" lengthAdjust="spacingAndGlyphs" textLength="51" x="229" y="293.0596">string Nom</text><line style="stroke: #A80036; stroke-width: 1.5;" x1="210" x2="421" y1="299.4766" y2="299.4766"/><ellipse cx="220" cy="311.8945" fill="#84BE84" rx="3" ry="3" style="stroke: #038048; stroke-width: 1.0;"/><text fill="#000000" font-family="sans-serif" font-size="11" lengthAdjust="spacingAndGlyphs" textLength="187" x="229" y="314.8955">void AssignerAuLit(Id idHopital, Id idLit)</text><ellipse cx="220" cy="325.7305" fill="#84BE84" rx="3" ry="3" style="stroke: #038048; stroke-width: 1.0;"/><text fill="#000000" font-family="sans-serif" font-size="11" lengthAdjust="spacingAndGlyphs" textLength="126" x="229" y="328.7314">void Admettre(Id idHopital)</text><!--class NumeroIndexPatient--><rect fill="#FEFECE" filter="url(#fqmle1582gpnd)" height="75.6719" id="NumeroIndexPatient" style="stroke: #A80036; stroke-width: 1.5;" width="144" x="319.5" y="96.1406"/><ellipse cx="334.5" cy="112.1406" fill="#ADD1B2" rx="11" ry="11" style="stroke: #A80036; stroke-width: 1.0;"/><path d="M337.2656,108.0156 Q337.4219,107.7969 337.6094,107.6875 Q337.7969,107.5781 338.0156,107.5781 Q338.3906,107.5781 338.625,107.8359 Q338.8594,108.0938 338.8594,108.7031 L338.8594,110.1563 Q338.8594,110.7656 338.625,111.0313 Q338.3906,111.2969 338.0156,111.2969 Q337.6719,111.2969 337.4688,111.0938 Q337.2656,110.9063 337.1563,110.3906 Q337.1094,110.0313 336.9219,109.8438 Q336.5938,109.4688 335.9844,109.25 Q335.375,109.0313 334.75,109.0313 Q333.9844,109.0313 333.3516,109.3594 Q332.7188,109.6875 332.2266,110.4375 Q331.7344,111.1875 331.7344,112.2188 L331.7344,113.3125 Q331.7344,114.5469 332.625,115.3672 Q333.5156,116.1875 335.1094,116.1875 Q336.0469,116.1875 336.7031,115.9375 Q337.0938,115.7813 337.5156,115.3438 Q337.7813,115.0781 337.9297,115 Q338.0781,114.9219 338.2813,114.9219 Q338.6094,114.9219 338.8672,115.1797 Q339.125,115.4375 339.125,115.7813 Q339.125,116.125 338.7813,116.5313 Q338.2813,117.1094 337.4844,117.4375 Q336.4063,117.8906 335.1094,117.8906 Q333.5938,117.8906 332.3906,117.2656 Q331.4063,116.7656 330.7188,115.6953 Q330.0313,114.625 330.0313,113.3438 L330.0313,112.1875 Q330.0313,110.8594 330.6484,109.7109 Q331.2656,108.5625 332.3594,107.9453 Q333.4531,107.3281 334.6875,107.3281 Q335.4219,107.3281 336.0703,107.4922 Q336.7188,107.6563 337.2656,108.0156 Z "/><text fill="#000000" font-family="sans-serif" font-size="12" lengthAdjust="spacingAndGlyphs" textLength="112" x="348.5" y="117.0508">NumeroIndexPatient</text><line style="stroke: #A80036; stroke-width: 1.5;" x1="320.5" x2="462.5" y1="128.1406" y2="128.1406"/><ellipse cx="330.5" cy="140.5586" fill="none" rx="3" ry="3" style="stroke: #038048; stroke-width: 1.0;"/><text fill="#000000" font-family="sans-serif" font-size="11" lengthAdjust="spacingAndGlyphs" textLength="51" x="339.5" y="143.5596">Id IdHopital</text><ellipse cx="330.5" cy="154.3945" fill="none" rx="3" ry="3" style="stroke: #038048; stroke-width: 1.0;"/><text fill="#000000" font-family="sans-serif" font-size="11" lengthAdjust="spacingAndGlyphs" textLength="67" x="339.5" y="157.3955">string Numero</text><line style="stroke: #A80036; stroke-width: 1.5;" x1="320.5" x2="462.5" y1="163.8125" y2="163.8125"/><!--class Lit--><rect fill="#FEFECE" filter="url(#fqmle1582gpnd)" height="103.3438" id="Lit" style="stroke: #A80036; stroke-width: 1.5;" width="152" x="132.5" y="82.6406"/><ellipse cx="197.75" cy="98.6406" fill="#ADD1B2" rx="11" ry="11" style="stroke: #A80036; stroke-width: 1.0;"/><path d="M200.5156,94.5156 Q200.6719,94.2969 200.8594,94.1875 Q201.0469,94.0781 201.2656,94.0781 Q201.6406,94.0781 201.875,94.3359 Q202.1094,94.5938 202.1094,95.2031 L202.1094,96.6563 Q202.1094,97.2656 201.875,97.5313 Q201.6406,97.7969 201.2656,97.7969 Q200.9219,97.7969 200.7188,97.5938 Q200.5156,97.4063 200.4063,96.8906 Q200.3594,96.5313 200.1719,96.3438 Q199.8438,95.9688 199.2344,95.75 Q198.625,95.5313 198,95.5313 Q197.2344,95.5313 196.6016,95.8594 Q195.9688,96.1875 195.4766,96.9375 Q194.9844,97.6875 194.9844,98.7188 L194.9844,99.8125 Q194.9844,101.0469 195.875,101.8672 Q196.7656,102.6875 198.3594,102.6875 Q199.2969,102.6875 199.9531,102.4375 Q200.3438,102.2813 200.7656,101.8438 Q201.0313,101.5781 201.1797,101.5 Q201.3281,101.4219 201.5313,101.4219 Q201.8594,101.4219 202.1172,101.6797 Q202.375,101.9375 202.375,102.2813 Q202.375,102.625 202.0313,103.0313 Q201.5313,103.6094 200.7344,103.9375 Q199.6563,104.3906 198.3594,104.3906 Q196.8438,104.3906 195.6406,103.7656 Q194.6563,103.2656 193.9688,102.1953 Q193.2813,101.125 193.2813,99.8438 L193.2813,98.6875 Q193.2813,97.3594 193.8984,96.2109 Q194.5156,95.0625 195.6094,94.4453 Q196.7031,93.8281 197.9375,93.8281 Q198.6719,93.8281 199.3203,93.9922 Q199.9688,94.1563 200.5156,94.5156 Z "/><text fill="#000000" font-family="sans-serif" font-size="12" lengthAdjust="spacingAndGlyphs" textLength="13" x="218.25" y="103.5508">Lit</text><line style="stroke: #A80036; stroke-width: 1.5;" x1="133.5" x2="283.5" y1="114.6406" y2="114.6406"/><ellipse cx="143.5" cy="127.0586" fill="none" rx="3" ry="3" style="stroke: #038048; stroke-width: 1.0;"/><text fill="#000000" font-family="sans-serif" font-size="11" lengthAdjust="spacingAndGlyphs" textLength="51" x="152.5" y="130.0596">Id IdHopital</text><ellipse cx="143.5" cy="140.8945" fill="none" rx="3" ry="3" style="stroke: #038048; stroke-width: 1.0;"/><text fill="#000000" font-family="sans-serif" font-size="11" lengthAdjust="spacingAndGlyphs" textLength="67" x="152.5" y="143.8955">string Numero</text><ellipse cx="143.5" cy="154.7305" fill="none" rx="3" ry="3" style="stroke: #038048; stroke-width: 1.0;"/><text fill="#000000" font-family="sans-serif" font-size="11" lengthAdjust="spacingAndGlyphs" textLength="118" x="152.5" y="157.7314">DateTime OccupeDepuis</text><ellipse cx="143.5" cy="168.5664" fill="none" rx="3" ry="3" style="stroke: #038048; stroke-width: 1.0;"/><text fill="#000000" font-family="sans-serif" font-size="11" lengthAdjust="spacingAndGlyphs" textLength="126" x="152.5" y="171.5674">DateTime? OccupeJusqua</text><line style="stroke: #A80036; stroke-width: 1.5;" x1="133.5" x2="283.5" y1="177.9844" y2="177.9844"/><!--class Prescription--><rect fill="#FEFECE" filter="url(#fqmle1582gpnd)" height="89.5078" id="Prescription" style="stroke: #A80036; stroke-width: 1.5;" width="143" x="499" y="89.1406"/><ellipse cx="534.25" cy="105.1406" fill="#ADD1B2" rx="11" ry="11" style="stroke: #A80036; stroke-width: 1.0;"/><path d="M537.0156,101.0156 Q537.1719,100.7969 537.3594,100.6875 Q537.5469,100.5781 537.7656,100.5781 Q538.1406,100.5781 538.375,100.8359 Q538.6094,101.0938 538.6094,101.7031 L538.6094,103.1563 Q538.6094,103.7656 538.375,104.0313 Q538.1406,104.2969 537.7656,104.2969 Q537.4219,104.2969 537.2188,104.0938 Q537.0156,103.9063 536.9063,103.3906 Q536.8594,103.0313 536.6719,102.8438 Q536.3438,102.4688 535.7344,102.25 Q535.125,102.0313 534.5,102.0313 Q533.7344,102.0313 533.1016,102.3594 Q532.4688,102.6875 531.9766,103.4375 Q531.4844,104.1875 531.4844,105.2188 L531.4844,106.3125 Q531.4844,107.5469 532.375,108.3672 Q533.2656,109.1875 534.8594,109.1875 Q535.7969,109.1875 536.4531,108.9375 Q536.8438,108.7813 537.2656,108.3438 Q537.5313,108.0781 537.6797,108 Q537.8281,107.9219 538.0313,107.9219 Q538.3594,107.9219 538.6172,108.1797 Q538.875,108.4375 538.875,108.7813 Q538.875,109.125 538.5313,109.5313 Q538.0313,110.1094 537.2344,110.4375 Q536.1563,110.8906 534.8594,110.8906 Q533.3438,110.8906 532.1406,110.2656 Q531.1563,109.7656 530.4688,108.6953 Q529.7813,107.625 529.7813,106.3438 L529.7813,105.1875 Q529.7813,103.8594 530.3984,102.7109 Q531.0156,101.5625 532.1094,100.9453 Q533.2031,100.3281 534.4375,100.3281 Q535.1719,100.3281 535.8203,100.4922 Q536.4688,100.6563 537.0156,101.0156 Z "/><text fill="#000000" font-family="sans-serif" font-size="12" lengthAdjust="spacingAndGlyphs" textLength="66" x="552.75" y="110.0508">Prescription</text><line style="stroke: #A80036; stroke-width: 1.5;" x1="500" x2="641" y1="121.1406" y2="121.1406"/><ellipse cx="510" cy="133.5586" fill="none" rx="3" ry="3" style="stroke: #038048; stroke-width: 1.0;"/><text fill="#000000" font-family="sans-serif" font-size="11" lengthAdjust="spacingAndGlyphs" textLength="76" x="519" y="136.5596">Id IdMedicament</text><ellipse cx="510" cy="147.3945" fill="none" rx="3" ry="3" style="stroke: #038048; stroke-width: 1.0;"/><text fill="#000000" font-family="sans-serif" font-size="11" lengthAdjust="spacingAndGlyphs" textLength="67" x="519" y="150.3955">Unite Quantite</text><ellipse cx="510" cy="161.2305" fill="none" rx="3" ry="3" style="stroke: #038048; stroke-width: 1.0;"/><text fill="#000000" font-family="sans-serif" font-size="11" lengthAdjust="spacingAndGlyphs" textLength="117" x="519" y="164.2314">Recurrence Recurrence</text><line style="stroke: #A80036; stroke-width: 1.5;" x1="500" x2="641" y1="170.6484" y2="170.6484"/><!--entity Codeclient--><rect fill="#FEFECE" filter="url(#fqmle1582gpnd)" height="37.6094" style="stroke: #000000; stroke-width: 1.5;" width="91" x="6" y="115.1406"/><text fill="#000000" font-family="sans-serif" font-size="14" lengthAdjust="spacingAndGlyphs" textLength="71" x="16" y="139.6738">Code client</text><!--link Lit to Patient--><path d="M243.536,185.7296 C254.381,201.3896 266.38,218.7146 277.42,234.6566 " fill="none" id="Lit-Patient" style="stroke: #A80036; stroke-width: 1.0;"/><polygon fill="#A80036" points="284.885,245.4346,284.7573,238.2247,278.0528,235.5695,278.1805,242.7794,284.885,245.4346" style="stroke: #A80036; stroke-width: 1.0;"/><text fill="#000000" font-family="sans-serif" font-size="13" lengthAdjust="spacingAndGlyphs" textLength="5" x="243.1114" y="207.605">*</text><text fill="#000000" font-family="sans-serif" font-size="13" lengthAdjust="spacingAndGlyphs" textLength="7" x="272.6611" y="234.8472">1</text><!--link NumeroIndexPatient to Patient--><path d="M373.296,172.1476 C364.229,190.5796 353.075,213.2536 342.993,233.7506 " fill="none" id="NumeroIndexPatient-Patient" style="stroke: #A80036; stroke-width: 1.0;"/><polygon fill="#A80036" points="337.204,245.5186,343.4418,241.9007,342.5014,234.7512,336.2635,238.3691,337.204,245.5186" style="stroke: #A80036; stroke-width: 1.0;"/><text fill="#000000" font-family="sans-serif" font-size="13" lengthAdjust="spacingAndGlyphs" textLength="5" x="364.8669" y="193.3189">*</text><text fill="#000000" font-family="sans-serif" font-size="13" lengthAdjust="spacingAndGlyphs" textLength="7" x="332.9915" y="234.944">1</text><!--link Prescription to Patient--><path d="M498.79,178.5886 C467.955,197.2706 431.697,219.2386 399.604,238.6836 " fill="none" id="Prescription-Patient" style="stroke: #A80036; stroke-width: 1.0;"/><polygon fill="#A80036" points="388.442,245.4466,395.6463,245.7589,398.7055,239.2289,391.5012,238.9166,388.442,245.4466" style="stroke: #A80036; stroke-width: 1.0;"/><text fill="#000000" font-family="sans-serif" font-size="13" lengthAdjust="spacingAndGlyphs" textLength="5" x="486.1371" y="179.8859">*</text><text fill="#000000" font-family="sans-serif" font-size="13" lengthAdjust="spacingAndGlyphs" textLength="7" x="392.0753" y="234.861">1</text><!--link Codeclient to Patient--><path d="M72.7494,153.2136 C85.1145,163.3256 101.2309,175.8306 116.5,185.6406 C148.541,206.2256 185.109,226.2446 218.081,243.1326 " fill="none" id="Codeclient-Patient" style="stroke: #A80036; stroke-width: 1.0;"/><polygon fill="#A80036" points="222.919,245.6016,216.7204,237.9481,218.4653,243.3291,213.0843,245.074,222.919,245.6016" style="stroke: #A80036; stroke-width: 1.0;"/><!--
@startuml patient-aggregate-with-root
allow_mixing

title Aggrégat Patient

rectangle "Aggrégat Patient" {
  class Patient #ff9900 {
    +string Nom
    +void AssignerAuLit(Id idHopital, Id idLit)
    +void Admettre(Id idHopital)
  }

  class NumeroIndexPatient {
      +Id IdHopital
      +string Numero
  }

  class Lit {
      +Id IdHopital
      +string Numero
      +DateTime OccupeDepuis
      +DateTime? OccupeJusqua
  }

  class Prescription {
      +Id IdMedicament
      +Unite Quantite
      +Recurrence Recurrence
  }
}

rectangle "Code client" as Codeclient

Patient "1" *-up- "*" Lit
Patient "1" *-up- "*" NumeroIndexPatient
Patient "1" *-up- "*" Prescription

Codeclient ==> Patient

@enduml

PlantUML version 1.2019.03(Sun Mar 10 07:04:44 EDT 2019)
(GPL source distribution)
Java Runtime: Java(TM) SE Runtime Environment
JVM: Java HotSpot(TM) 64-Bit Server VM
Java Version: 1.8.0_181-b13
Operating System: Windows 10
OS Version: 10.0
Default Encoding: Cp1252
Language: en
Country: CA
--></g></svg>