<?xml version="1.0" encoding="UTF-8" standalone="no"?><svg xmlns="http://www.w3.org/2000/svg" xmlns:xlink="http://www.w3.org/1999/xlink" contentScriptType="application/ecmascript" contentStyleType="text/css" height="294px" preserveAspectRatio="none" style="width:655px;height:294px;" version="1.1" viewBox="0 0 655 294" width="655px" zoomAndPan="magnify"><defs><filter height="300%" id="fg1y67zpxxiut" width="300%" x="-1" y="-1"><feGaussianBlur result="blurOut" stdDeviation="2.0"/><feColorMatrix in="blurOut" result="blurOut2" type="matrix" values="0 0 0 0 0 0 0 0 0 0 0 0 0 0 0 0 0 0 .4 0"/><feOffset dx="4.0" dy="4.0" in="blurOut2" result="blurOut3"/><feBlend in="SourceGraphic" in2="blurOut3" mode="normal"/></filter></defs><g><text fill="#000000" font-family="sans-serif" font-size="18" lengthAdjust="spacingAndGlyphs" textLength="200" x="231.5" y="18.6855">Événements de Domaine</text><!--class Événement--><rect fill="#FEFECE" filter="url(#fg1y67zpxxiut)" height="89.5078" id="Événement" style="stroke: #A80036; stroke-width: 1.5;" width="95" x="280.5" y="30.6406"/><ellipse cx="295.95" cy="46.6406" fill="#ADD1B2" rx="11" ry="11" style="stroke: #A80036; stroke-width: 1.0;"/><path d="M298.7156,42.5156 Q298.8719,42.2969 299.0594,42.1875 Q299.2469,42.0781 299.4656,42.0781 Q299.8406,42.0781 300.075,42.3359 Q300.3094,42.5938 300.3094,43.2031 L300.3094,44.6563 Q300.3094,45.2656 300.075,45.5313 Q299.8406,45.7969 299.4656,45.7969 Q299.1219,45.7969 298.9188,45.5938 Q298.7156,45.4063 298.6063,44.8906 Q298.5594,44.5313 298.3719,44.3438 Q298.0438,43.9688 297.4344,43.75 Q296.825,43.5313 296.2,43.5313 Q295.4344,43.5313 294.8016,43.8594 Q294.1688,44.1875 293.6766,44.9375 Q293.1844,45.6875 293.1844,46.7188 L293.1844,47.8125 Q293.1844,49.0469 294.075,49.8672 Q294.9656,50.6875 296.5594,50.6875 Q297.4969,50.6875 298.1531,50.4375 Q298.5438,50.2813 298.9656,49.8438 Q299.2313,49.5781 299.3797,49.5 Q299.5281,49.4219 299.7313,49.4219 Q300.0594,49.4219 300.3172,49.6797 Q300.575,49.9375 300.575,50.2813 Q300.575,50.625 300.2313,51.0313 Q299.7313,51.6094 298.9344,51.9375 Q297.8563,52.3906 296.5594,52.3906 Q295.0438,52.3906 293.8406,51.7656 Q292.8563,51.2656 292.1688,50.1953 Q291.4813,49.125 291.4813,47.8438 L291.4813,46.6875 Q291.4813,45.3594 292.0984,44.2109 Q292.7156,43.0625 293.8094,42.4453 Q294.9031,41.8281 296.1375,41.8281 Q296.8719,41.8281 297.5203,41.9922 Q298.1688,42.1563 298.7156,42.5156 Z "/><text fill="#000000" font-family="sans-serif" font-size="12" lengthAdjust="spacingAndGlyphs" textLength="62" x="310.05" y="51.5508">Événement</text><line style="stroke: #A80036; stroke-width: 1.5;" x1="281.5" x2="374.5" y1="62.6406" y2="62.6406"/><ellipse cx="291.5" cy="75.0586" fill="none" rx="3" ry="3" style="stroke: #038048; stroke-width: 1.0;"/><text fill="#000000" font-family="sans-serif" font-size="11" lengthAdjust="spacingAndGlyphs" textLength="66" x="300.5" y="78.0596">Id IdUtilisateur</text><ellipse cx="291.5" cy="88.8945" fill="none" rx="3" ry="3" style="stroke: #038048; stroke-width: 1.0;"/><text fill="#000000" font-family="sans-serif" font-size="11" lengthAdjust="spacingAndGlyphs" textLength="64" x="300.5" y="91.8955">Id IdAggrégat</text><ellipse cx="291.5" cy="102.7305" fill="none" rx="3" ry="3" style="stroke: #038048; stroke-width: 1.0;"/><text fill="#000000" font-family="sans-serif" font-size="11" lengthAdjust="spacingAndGlyphs" textLength="69" x="300.5" y="105.7314">DateTime Date</text><line style="stroke: #A80036; stroke-width: 1.5;" x1="281.5" x2="374.5" y1="112.1484" y2="112.1484"/><!--class PatientAssignéAuLit--><rect fill="#FEFECE" filter="url(#fg1y67zpxxiut)" height="61.8359" id="PatientAssignéAuLit" style="stroke: #A80036; stroke-width: 1.5;" width="142" x="6" y="201.1406"/><ellipse cx="21" cy="217.1406" fill="#ADD1B2" rx="11" ry="11" style="stroke: #A80036; stroke-width: 1.0;"/><path d="M23.7656,213.0156 Q23.9219,212.7969 24.1094,212.6875 Q24.2969,212.5781 24.5156,212.5781 Q24.8906,212.5781 25.125,212.8359 Q25.3594,213.0938 25.3594,213.7031 L25.3594,215.1563 Q25.3594,215.7656 25.125,216.0313 Q24.8906,216.2969 24.5156,216.2969 Q24.1719,216.2969 23.9688,216.0938 Q23.7656,215.9063 23.6563,215.3906 Q23.6094,215.0313 23.4219,214.8438 Q23.0938,214.4688 22.4844,214.25 Q21.875,214.0313 21.25,214.0313 Q20.4844,214.0313 19.8516,214.3594 Q19.2188,214.6875 18.7266,215.4375 Q18.2344,216.1875 18.2344,217.2188 L18.2344,218.3125 Q18.2344,219.5469 19.125,220.3672 Q20.0156,221.1875 21.6094,221.1875 Q22.5469,221.1875 23.2031,220.9375 Q23.5938,220.7813 24.0156,220.3438 Q24.2813,220.0781 24.4297,220 Q24.5781,219.9219 24.7813,219.9219 Q25.1094,219.9219 25.3672,220.1797 Q25.625,220.4375 25.625,220.7813 Q25.625,221.125 25.2813,221.5313 Q24.7813,222.1094 23.9844,222.4375 Q22.9063,222.8906 21.6094,222.8906 Q20.0938,222.8906 18.8906,222.2656 Q17.9063,221.7656 17.2188,220.6953 Q16.5313,219.625 16.5313,218.3438 L16.5313,217.1875 Q16.5313,215.8594 17.1484,214.7109 Q17.7656,213.5625 18.8594,212.9453 Q19.9531,212.3281 21.1875,212.3281 Q21.9219,212.3281 22.5703,212.4922 Q23.2188,212.6563 23.7656,213.0156 Z "/><text fill="#000000" font-family="sans-serif" font-size="12" lengthAdjust="spacingAndGlyphs" textLength="110" x="35" y="222.0508">PatientAssignéAuLit</text><line style="stroke: #A80036; stroke-width: 1.5;" x1="7" x2="147" y1="233.1406" y2="233.1406"/><ellipse cx="17" cy="245.5586" fill="none" rx="3" ry="3" style="stroke: #038048; stroke-width: 1.0;"/><text fill="#000000" font-family="sans-serif" font-size="11" lengthAdjust="spacingAndGlyphs" textLength="30" x="26" y="248.5596">Id IdLit</text><line style="stroke: #A80036; stroke-width: 1.5;" x1="7" x2="147" y1="254.9766" y2="254.9766"/><!--class PatientFacturé--><rect fill="#FEFECE" filter="url(#fg1y67zpxxiut)" height="89.5078" id="PatientFacturé" style="stroke: #A80036; stroke-width: 1.5;" width="111" x="183.5" y="187.1406"/><ellipse cx="198.5" cy="203.1406" fill="#ADD1B2" rx="11" ry="11" style="stroke: #A80036; stroke-width: 1.0;"/><path d="M201.2656,199.0156 Q201.4219,198.7969 201.6094,198.6875 Q201.7969,198.5781 202.0156,198.5781 Q202.3906,198.5781 202.625,198.8359 Q202.8594,199.0938 202.8594,199.7031 L202.8594,201.1563 Q202.8594,201.7656 202.625,202.0313 Q202.3906,202.2969 202.0156,202.2969 Q201.6719,202.2969 201.4688,202.0938 Q201.2656,201.9063 201.1563,201.3906 Q201.1094,201.0313 200.9219,200.8438 Q200.5938,200.4688 199.9844,200.25 Q199.375,200.0313 198.75,200.0313 Q197.9844,200.0313 197.3516,200.3594 Q196.7188,200.6875 196.2266,201.4375 Q195.7344,202.1875 195.7344,203.2188 L195.7344,204.3125 Q195.7344,205.5469 196.625,206.3672 Q197.5156,207.1875 199.1094,207.1875 Q200.0469,207.1875 200.7031,206.9375 Q201.0938,206.7813 201.5156,206.3438 Q201.7813,206.0781 201.9297,206 Q202.0781,205.9219 202.2813,205.9219 Q202.6094,205.9219 202.8672,206.1797 Q203.125,206.4375 203.125,206.7813 Q203.125,207.125 202.7813,207.5313 Q202.2813,208.1094 201.4844,208.4375 Q200.4063,208.8906 199.1094,208.8906 Q197.5938,208.8906 196.3906,208.2656 Q195.4063,207.7656 194.7188,206.6953 Q194.0313,205.625 194.0313,204.3438 L194.0313,203.1875 Q194.0313,201.8594 194.6484,200.7109 Q195.2656,199.5625 196.3594,198.9453 Q197.4531,198.3281 198.6875,198.3281 Q199.4219,198.3281 200.0703,198.4922 Q200.7188,198.6563 201.2656,199.0156 Z "/><text fill="#000000" font-family="sans-serif" font-size="12" lengthAdjust="spacingAndGlyphs" textLength="79" x="212.5" y="208.0508">PatientFacturé</text><line style="stroke: #A80036; stroke-width: 1.5;" x1="184.5" x2="293.5" y1="219.1406" y2="219.1406"/><ellipse cx="194.5" cy="231.5586" fill="none" rx="3" ry="3" style="stroke: #038048; stroke-width: 1.0;"/><text fill="#000000" font-family="sans-serif" font-size="11" lengthAdjust="spacingAndGlyphs" textLength="51" x="203.5" y="234.5596">Id IdHopital</text><ellipse cx="194.5" cy="245.3945" fill="none" rx="3" ry="3" style="stroke: #038048; stroke-width: 1.0;"/><text fill="#000000" font-family="sans-serif" font-size="11" lengthAdjust="spacingAndGlyphs" textLength="74" x="203.5" y="248.3955">Argent Montant</text><ellipse cx="194.5" cy="259.2305" fill="none" rx="3" ry="3" style="stroke: #038048; stroke-width: 1.0;"/><text fill="#000000" font-family="sans-serif" font-size="11" lengthAdjust="spacingAndGlyphs" textLength="84" x="203.5" y="262.2314">string Description</text><line style="stroke: #A80036; stroke-width: 1.5;" x1="184.5" x2="293.5" y1="268.6484" y2="268.6484"/><!--class AssuranceMaladieExpirée--><rect fill="#FEFECE" filter="url(#fg1y67zpxxiut)" height="75.6719" id="AssuranceMaladieExpirée" style="stroke: #A80036; stroke-width: 1.5;" width="175" x="329.5" y="194.1406"/><ellipse cx="344.5" cy="210.1406" fill="#ADD1B2" rx="11" ry="11" style="stroke: #A80036; stroke-width: 1.0;"/><path d="M347.2656,206.0156 Q347.4219,205.7969 347.6094,205.6875 Q347.7969,205.5781 348.0156,205.5781 Q348.3906,205.5781 348.625,205.8359 Q348.8594,206.0938 348.8594,206.7031 L348.8594,208.1563 Q348.8594,208.7656 348.625,209.0313 Q348.3906,209.2969 348.0156,209.2969 Q347.6719,209.2969 347.4688,209.0938 Q347.2656,208.9063 347.1563,208.3906 Q347.1094,208.0313 346.9219,207.8438 Q346.5938,207.4688 345.9844,207.25 Q345.375,207.0313 344.75,207.0313 Q343.9844,207.0313 343.3516,207.3594 Q342.7188,207.6875 342.2266,208.4375 Q341.7344,209.1875 341.7344,210.2188 L341.7344,211.3125 Q341.7344,212.5469 342.625,213.3672 Q343.5156,214.1875 345.1094,214.1875 Q346.0469,214.1875 346.7031,213.9375 Q347.0938,213.7813 347.5156,213.3438 Q347.7813,213.0781 347.9297,213 Q348.0781,212.9219 348.2813,212.9219 Q348.6094,212.9219 348.8672,213.1797 Q349.125,213.4375 349.125,213.7813 Q349.125,214.125 348.7813,214.5313 Q348.2813,215.1094 347.4844,215.4375 Q346.4063,215.8906 345.1094,215.8906 Q343.5938,215.8906 342.3906,215.2656 Q341.4063,214.7656 340.7188,213.6953 Q340.0313,212.625 340.0313,211.3438 L340.0313,210.1875 Q340.0313,208.8594 340.6484,207.7109 Q341.2656,206.5625 342.3594,205.9453 Q343.4531,205.3281 344.6875,205.3281 Q345.4219,205.3281 346.0703,205.4922 Q346.7188,205.6563 347.2656,206.0156 Z "/><text fill="#000000" font-family="sans-serif" font-size="12" lengthAdjust="spacingAndGlyphs" textLength="143" x="358.5" y="215.0508">AssuranceMaladieExpirée</text><line style="stroke: #A80036; stroke-width: 1.5;" x1="330.5" x2="503.5" y1="226.1406" y2="226.1406"/><ellipse cx="340.5" cy="238.5586" fill="none" rx="3" ry="3" style="stroke: #038048; stroke-width: 1.0;"/><text fill="#000000" font-family="sans-serif" font-size="11" lengthAdjust="spacingAndGlyphs" textLength="45" x="349.5" y="241.5596">Id IdCarte</text><ellipse cx="340.5" cy="252.3945" fill="none" rx="3" ry="3" style="stroke: #038048; stroke-width: 1.0;"/><text fill="#000000" font-family="sans-serif" font-size="11" lengthAdjust="spacingAndGlyphs" textLength="116" x="349.5" y="255.3955">DateTime DateExpiration</text><line style="stroke: #A80036; stroke-width: 1.5;" x1="330.5" x2="503.5" y1="261.8125" y2="261.8125"/><!--class PatientAdmis--><rect fill="#FEFECE" filter="url(#fg1y67zpxxiut)" height="103.3438" id="PatientAdmis" style="stroke: #A80036; stroke-width: 1.5;" width="105" x="539.5" y="180.6406"/><ellipse cx="554.5" cy="196.6406" fill="#ADD1B2" rx="11" ry="11" style="stroke: #A80036; stroke-width: 1.0;"/><path d="M557.2656,192.5156 Q557.4219,192.2969 557.6094,192.1875 Q557.7969,192.0781 558.0156,192.0781 Q558.3906,192.0781 558.625,192.3359 Q558.8594,192.5938 558.8594,193.2031 L558.8594,194.6563 Q558.8594,195.2656 558.625,195.5313 Q558.3906,195.7969 558.0156,195.7969 Q557.6719,195.7969 557.4688,195.5938 Q557.2656,195.4063 557.1563,194.8906 Q557.1094,194.5313 556.9219,194.3438 Q556.5938,193.9688 555.9844,193.75 Q555.375,193.5313 554.75,193.5313 Q553.9844,193.5313 553.3516,193.8594 Q552.7188,194.1875 552.2266,194.9375 Q551.7344,195.6875 551.7344,196.7188 L551.7344,197.8125 Q551.7344,199.0469 552.625,199.8672 Q553.5156,200.6875 555.1094,200.6875 Q556.0469,200.6875 556.7031,200.4375 Q557.0938,200.2813 557.5156,199.8438 Q557.7813,199.5781 557.9297,199.5 Q558.0781,199.4219 558.2813,199.4219 Q558.6094,199.4219 558.8672,199.6797 Q559.125,199.9375 559.125,200.2813 Q559.125,200.625 558.7813,201.0313 Q558.2813,201.6094 557.4844,201.9375 Q556.4063,202.3906 555.1094,202.3906 Q553.5938,202.3906 552.3906,201.7656 Q551.4063,201.2656 550.7188,200.1953 Q550.0313,199.125 550.0313,197.8438 L550.0313,196.6875 Q550.0313,195.3594 550.6484,194.2109 Q551.2656,193.0625 552.3594,192.4453 Q553.4531,191.8281 554.6875,191.8281 Q555.4219,191.8281 556.0703,191.9922 Q556.7188,192.1563 557.2656,192.5156 Z "/><text fill="#000000" font-family="sans-serif" font-size="12" lengthAdjust="spacingAndGlyphs" textLength="73" x="568.5" y="201.5508">PatientAdmis</text><line style="stroke: #A80036; stroke-width: 1.5;" x1="540.5" x2="643.5" y1="212.6406" y2="212.6406"/><ellipse cx="550.5" cy="225.0586" fill="none" rx="3" ry="3" style="stroke: #038048; stroke-width: 1.0;"/><text fill="#000000" font-family="sans-serif" font-size="11" lengthAdjust="spacingAndGlyphs" textLength="66" x="559.5" y="228.0596">string Prénom</text><ellipse cx="550.5" cy="238.8945" fill="none" rx="3" ry="3" style="stroke: #038048; stroke-width: 1.0;"/><text fill="#000000" font-family="sans-serif" font-size="11" lengthAdjust="spacingAndGlyphs" textLength="51" x="559.5" y="241.8955">string Nom</text><ellipse cx="550.5" cy="252.7305" fill="none" rx="3" ry="3" style="stroke: #038048; stroke-width: 1.0;"/><text fill="#000000" font-family="sans-serif" font-size="11" lengthAdjust="spacingAndGlyphs" textLength="69" x="559.5" y="255.7314">Gender Genre</text><ellipse cx="550.5" cy="266.5664" fill="none" rx="3" ry="3" style="stroke: #038048; stroke-width: 1.0;"/><text fill="#000000" font-family="sans-serif" font-size="11" lengthAdjust="spacingAndGlyphs" textLength="58" x="559.5" y="269.5674">string Notes</text><line style="stroke: #A80036; stroke-width: 1.5;" x1="540.5" x2="643.5" y1="275.9844" y2="275.9844"/><!--link Événement to PatientAssignéAuLit--><path d="M263.285,116.4756 C220.47,142.8296 165.21,176.8436 126.026,200.9635 " fill="none" id="Événement-PatientAssignéAuLit" style="stroke: #A80036; stroke-width: 1.0;"/><polygon fill="none" points="259.792,110.4056,280.494,105.8826,267.131,122.3276,259.792,110.4056" style="stroke: #A80036; stroke-width: 1.0;"/><!--link Événement to PatientFacturé--><path d="M292.416,138.4136 C283.025,154.7146 273.082,171.9756 264.354,187.1279 " fill="none" id="Événement-PatientFacturé" style="stroke: #A80036; stroke-width: 1.0;"/><polygon fill="none" points="286.447,134.7506,302.496,120.9136,298.579,141.7386,286.447,134.7506" style="stroke: #A80036; stroke-width: 1.0;"/><!--link Événement to AssuranceMaladieExpirée--><path d="M363.572,138.3926 C374.401,157.1906 385.965,177.2656 395.555,193.9136 " fill="none" id="Événement-AssuranceMaladieExpirée" style="stroke: #A80036; stroke-width: 1.0;"/><polygon fill="none" points="357.421,141.7386,353.504,120.9136,369.553,134.7506,357.421,141.7386" style="stroke: #A80036; stroke-width: 1.0;"/><!--link Événement to PatientAdmis--><path d="M393.724,109.1146 C431.878,128.6436 480.458,154.6816 522,180.6406 C527.719,184.2142 533.59,188.0918 539.383,192.0562 " fill="none" id="Événement-PatientAdmis" style="stroke: #A80036; stroke-width: 1.0;"/><polygon fill="none" points="390.307,115.2306,375.635,99.9426,396.639,102.7446,390.307,115.2306" style="stroke: #A80036; stroke-width: 1.0;"/><!--
@startuml domain-events

title Événements de Domaine

class Événement {
  +Id IdUtilisateur
  +Id IdAggrégat
  +DateTime Date
}

class PatientAssignéAuLit {
  +Id IdLit
}

class PatientFacturé {
  +Id IdHopital
  +Argent Montant
  +string Description
}

class AssuranceMaladieExpirée {
  +Id IdCarte
  +DateTime DateExpiration
}

class PatientAdmis {
  +string Prénom
  +string Nom
  +Gender Genre
  +string Notes
}

Événement <|- - PatientAssignéAuLit
Événement <|- - PatientFacturé
Événement <|- - AssuranceMaladieExpirée
Événement <|- - PatientAdmis

@enduml

PlantUML version 1.2019.03(Sun Mar 10 07:04:44 EDT 2019)
(GPL source distribution)
Java Runtime: Java(TM) SE Runtime Environment
JVM: Java HotSpot(TM) 64-Bit Server VM
Java Version: 1.8.0_181-b13
Operating System: Windows 10
OS Version: 10.0
Default Encoding: Cp1252
Language: en
Country: CA
--></g></svg>