<?xml version="1.0" encoding="UTF-8" standalone="no"?><svg xmlns="http://www.w3.org/2000/svg" xmlns:xlink="http://www.w3.org/1999/xlink" contentScriptType="application/ecmascript" contentStyleType="text/css" height="511px" preserveAspectRatio="none" style="width:781px;height:511px;" version="1.1" viewBox="0 0 781 511" width="781px" zoomAndPan="magnify"><defs><filter height="300%" id="f1vzanhs9hdfd4" width="300%" x="-1" y="-1"><feGaussianBlur result="blurOut" stdDeviation="2.0"/><feColorMatrix in="blurOut" result="blurOut2" type="matrix" values="0 0 0 0 0 0 0 0 0 0 0 0 0 0 0 0 0 0 .4 0"/><feOffset dx="4.0" dy="4.0" in="blurOut2" result="blurOut3"/><feBlend in="SourceGraphic" in2="blurOut3" mode="normal"/></filter></defs><g><text fill="#000000" font-family="sans-serif" font-size="18" lengthAdjust="spacingAndGlyphs" textLength="276" x="268" y="18.6855">Données Legacy vers événements</text><!--cluster Events--><rect fill="#FFFFFF" filter="url(#f1vzanhs9hdfd4)" height="249.5" style="stroke: #000000; stroke-width: 1.5;" width="372" x="398" y="251.1406"/><text fill="#000000" font-family="sans-serif" font-size="14" font-weight="bold" lengthAdjust="spacingAndGlyphs" textLength="88" x="540" y="267.6738">Événements</text><!--cluster PatientData--><rect fill="#FFFFFF" filter="url(#f1vzanhs9hdfd4)" height="346" style="stroke: #000000; stroke-width: 1.5;" width="328" x="30" y="54.6406"/><text fill="#000000" font-family="sans-serif" font-size="14" font-weight="bold" lengthAdjust="spacingAndGlyphs" textLength="169" x="109.5" y="71.1738">Données Patient Legacy</text><!--class PatientEnregistré--><rect fill="#FEFECE" filter="url(#f1vzanhs9hdfd4)" height="40" id="PatientEnregistré" style="stroke: #A80036; stroke-width: 1.5;" width="127" x="441.5" y="295.1406"/><ellipse cx="456.5" cy="311.1406" fill="#ADD1B2" rx="11" ry="11" style="stroke: #A80036; stroke-width: 1.0;"/><path d="M459.2656,307.0156 Q459.4219,306.7969 459.6094,306.6875 Q459.7969,306.5781 460.0156,306.5781 Q460.3906,306.5781 460.625,306.8359 Q460.8594,307.0938 460.8594,307.7031 L460.8594,309.1563 Q460.8594,309.7656 460.625,310.0313 Q460.3906,310.2969 460.0156,310.2969 Q459.6719,310.2969 459.4688,310.0938 Q459.2656,309.9063 459.1563,309.3906 Q459.1094,309.0313 458.9219,308.8438 Q458.5938,308.4688 457.9844,308.25 Q457.375,308.0313 456.75,308.0313 Q455.9844,308.0313 455.3516,308.3594 Q454.7188,308.6875 454.2266,309.4375 Q453.7344,310.1875 453.7344,311.2188 L453.7344,312.3125 Q453.7344,313.5469 454.625,314.3672 Q455.5156,315.1875 457.1094,315.1875 Q458.0469,315.1875 458.7031,314.9375 Q459.0938,314.7813 459.5156,314.3438 Q459.7813,314.0781 459.9297,314 Q460.0781,313.9219 460.2813,313.9219 Q460.6094,313.9219 460.8672,314.1797 Q461.125,314.4375 461.125,314.7813 Q461.125,315.125 460.7813,315.5313 Q460.2813,316.1094 459.4844,316.4375 Q458.4063,316.8906 457.1094,316.8906 Q455.5938,316.8906 454.3906,316.2656 Q453.4063,315.7656 452.7188,314.6953 Q452.0313,313.625 452.0313,312.3438 L452.0313,311.1875 Q452.0313,309.8594 452.6484,308.7109 Q453.2656,307.5625 454.3594,306.9453 Q455.4531,306.3281 456.6875,306.3281 Q457.4219,306.3281 458.0703,306.4922 Q458.7188,306.6563 459.2656,307.0156 Z "/><text fill="#000000" font-family="sans-serif" font-size="12" lengthAdjust="spacingAndGlyphs" textLength="95" x="470.5" y="316.0508">PatientEnregistré</text><line style="stroke: #A80036; stroke-width: 1.5;" x1="442.5" x2="567.5" y1="327.1406" y2="327.1406"/><!--class PatientAdmis--><rect fill="#FEFECE" filter="url(#f1vzanhs9hdfd4)" height="40" id="PatientAdmis" style="stroke: #A80036; stroke-width: 1.5;" width="105" x="467.5" y="436.6406"/><ellipse cx="482.5" cy="452.6406" fill="#ADD1B2" rx="11" ry="11" style="stroke: #A80036; stroke-width: 1.0;"/><path d="M485.2656,448.5156 Q485.4219,448.2969 485.6094,448.1875 Q485.7969,448.0781 486.0156,448.0781 Q486.3906,448.0781 486.625,448.3359 Q486.8594,448.5938 486.8594,449.2031 L486.8594,450.6563 Q486.8594,451.2656 486.625,451.5313 Q486.3906,451.7969 486.0156,451.7969 Q485.6719,451.7969 485.4688,451.5938 Q485.2656,451.4063 485.1563,450.8906 Q485.1094,450.5313 484.9219,450.3438 Q484.5938,449.9688 483.9844,449.75 Q483.375,449.5313 482.75,449.5313 Q481.9844,449.5313 481.3516,449.8594 Q480.7188,450.1875 480.2266,450.9375 Q479.7344,451.6875 479.7344,452.7188 L479.7344,453.8125 Q479.7344,455.0469 480.625,455.8672 Q481.5156,456.6875 483.1094,456.6875 Q484.0469,456.6875 484.7031,456.4375 Q485.0938,456.2813 485.5156,455.8438 Q485.7813,455.5781 485.9297,455.5 Q486.0781,455.4219 486.2813,455.4219 Q486.6094,455.4219 486.8672,455.6797 Q487.125,455.9375 487.125,456.2813 Q487.125,456.625 486.7813,457.0313 Q486.2813,457.6094 485.4844,457.9375 Q484.4063,458.3906 483.1094,458.3906 Q481.5938,458.3906 480.3906,457.7656 Q479.4063,457.2656 478.7188,456.1953 Q478.0313,455.125 478.0313,453.8438 L478.0313,452.6875 Q478.0313,451.3594 478.6484,450.2109 Q479.2656,449.0625 480.3594,448.4453 Q481.4531,447.8281 482.6875,447.8281 Q483.4219,447.8281 484.0703,447.9922 Q484.7188,448.1563 485.2656,448.5156 Z "/><text fill="#000000" font-family="sans-serif" font-size="12" lengthAdjust="spacingAndGlyphs" textLength="73" x="496.5" y="457.5508">PatientAdmis</text><line style="stroke: #A80036; stroke-width: 1.5;" x1="468.5" x2="571.5" y1="468.6406" y2="468.6406"/><!--class PatientAssignéAuLit--><rect fill="#FEFECE" filter="url(#f1vzanhs9hdfd4)" height="40" id="PatientAssignéAuLit" style="stroke: #A80036; stroke-width: 1.5;" width="142" x="604" y="295.1406"/><ellipse cx="619" cy="311.1406" fill="#ADD1B2" rx="11" ry="11" style="stroke: #A80036; stroke-width: 1.0;"/><path d="M621.7656,307.0156 Q621.9219,306.7969 622.1094,306.6875 Q622.2969,306.5781 622.5156,306.5781 Q622.8906,306.5781 623.125,306.8359 Q623.3594,307.0938 623.3594,307.7031 L623.3594,309.1563 Q623.3594,309.7656 623.125,310.0313 Q622.8906,310.2969 622.5156,310.2969 Q622.1719,310.2969 621.9688,310.0938 Q621.7656,309.9063 621.6563,309.3906 Q621.6094,309.0313 621.4219,308.8438 Q621.0938,308.4688 620.4844,308.25 Q619.875,308.0313 619.25,308.0313 Q618.4844,308.0313 617.8516,308.3594 Q617.2188,308.6875 616.7266,309.4375 Q616.2344,310.1875 616.2344,311.2188 L616.2344,312.3125 Q616.2344,313.5469 617.125,314.3672 Q618.0156,315.1875 619.6094,315.1875 Q620.5469,315.1875 621.2031,314.9375 Q621.5938,314.7813 622.0156,314.3438 Q622.2813,314.0781 622.4297,314 Q622.5781,313.9219 622.7813,313.9219 Q623.1094,313.9219 623.3672,314.1797 Q623.625,314.4375 623.625,314.7813 Q623.625,315.125 623.2813,315.5313 Q622.7813,316.1094 621.9844,316.4375 Q620.9063,316.8906 619.6094,316.8906 Q618.0938,316.8906 616.8906,316.2656 Q615.9063,315.7656 615.2188,314.6953 Q614.5313,313.625 614.5313,312.3438 L614.5313,311.1875 Q614.5313,309.8594 615.1484,308.7109 Q615.7656,307.5625 616.8594,306.9453 Q617.9531,306.3281 619.1875,306.3281 Q619.9219,306.3281 620.5703,306.4922 Q621.2188,306.6563 621.7656,307.0156 Z "/><text fill="#000000" font-family="sans-serif" font-size="12" lengthAdjust="spacingAndGlyphs" textLength="110" x="633" y="316.0508">PatientAssignéAuLit</text><line style="stroke: #A80036; stroke-width: 1.5;" x1="605" x2="745" y1="327.1406" y2="327.1406"/><!--class PatientLibéré--><rect fill="#FEFECE" filter="url(#f1vzanhs9hdfd4)" height="40" id="PatientLibéré" style="stroke: #A80036; stroke-width: 1.5;" width="105" x="622.5" y="436.6406"/><ellipse cx="637.5" cy="452.6406" fill="#ADD1B2" rx="11" ry="11" style="stroke: #A80036; stroke-width: 1.0;"/><path d="M640.2656,448.5156 Q640.4219,448.2969 640.6094,448.1875 Q640.7969,448.0781 641.0156,448.0781 Q641.3906,448.0781 641.625,448.3359 Q641.8594,448.5938 641.8594,449.2031 L641.8594,450.6563 Q641.8594,451.2656 641.625,451.5313 Q641.3906,451.7969 641.0156,451.7969 Q640.6719,451.7969 640.4688,451.5938 Q640.2656,451.4063 640.1563,450.8906 Q640.1094,450.5313 639.9219,450.3438 Q639.5938,449.9688 638.9844,449.75 Q638.375,449.5313 637.75,449.5313 Q636.9844,449.5313 636.3516,449.8594 Q635.7188,450.1875 635.2266,450.9375 Q634.7344,451.6875 634.7344,452.7188 L634.7344,453.8125 Q634.7344,455.0469 635.625,455.8672 Q636.5156,456.6875 638.1094,456.6875 Q639.0469,456.6875 639.7031,456.4375 Q640.0938,456.2813 640.5156,455.8438 Q640.7813,455.5781 640.9297,455.5 Q641.0781,455.4219 641.2813,455.4219 Q641.6094,455.4219 641.8672,455.6797 Q642.125,455.9375 642.125,456.2813 Q642.125,456.625 641.7813,457.0313 Q641.2813,457.6094 640.4844,457.9375 Q639.4063,458.3906 638.1094,458.3906 Q636.5938,458.3906 635.3906,457.7656 Q634.4063,457.2656 633.7188,456.1953 Q633.0313,455.125 633.0313,453.8438 L633.0313,452.6875 Q633.0313,451.3594 633.6484,450.2109 Q634.2656,449.0625 635.3594,448.4453 Q636.4531,447.8281 637.6875,447.8281 Q638.4219,447.8281 639.0703,447.9922 Q639.7188,448.1563 640.2656,448.5156 Z "/><text fill="#000000" font-family="sans-serif" font-size="12" lengthAdjust="spacingAndGlyphs" textLength="73" x="651.5" y="457.5508">PatientLibéré</text><line style="stroke: #A80036; stroke-width: 1.5;" x1="623.5" x2="726.5" y1="468.6406" y2="468.6406"/><!--class Patient--><rect fill="#FEFECE" filter="url(#f1vzanhs9hdfd4)" height="123.0156" id="Patient" style="stroke: #A80036; stroke-width: 1.5;" width="141" x="113.5" y="253.6406"/><ellipse cx="160.75" cy="269.6406" fill="#FFAAAA" rx="11" ry="11" style="stroke: #A80036; stroke-width: 1.0;"/><path d="M161.6719,267.0313 L161.6719,273.6875 L162.8281,273.6875 Q163.4375,273.6875 163.6953,273.9219 Q163.9531,274.1563 163.9531,274.5469 Q163.9531,274.9219 163.6953,275.1563 Q163.4375,275.3906 162.8281,275.3906 L158.8438,275.3906 Q158.2188,275.3906 157.9609,275.1563 Q157.7031,274.9219 157.7031,274.5313 Q157.7031,274.1563 157.9609,273.9219 Q158.2188,273.6875 158.8438,273.6875 L159.9688,273.6875 L159.9688,267.0313 L158.125,267.0313 L158.125,268.6406 Q158.125,269.25 157.8906,269.5156 Q157.6563,269.7813 157.2813,269.7813 Q156.9063,269.7813 156.6719,269.5156 Q156.4375,269.25 156.4375,268.6406 L156.4375,265.3281 L165.25,265.3281 L165.25,268.6406 Q165.25,269.25 165.0078,269.5156 Q164.7656,269.7813 164.3906,269.7813 Q164.0156,269.7813 163.7813,269.5156 Q163.5469,269.25 163.5469,268.6406 L163.5469,267.0313 L161.6719,267.0313 Z "/><text fill="#000000" font-family="sans-serif" font-size="12" lengthAdjust="spacingAndGlyphs" textLength="38" x="181.25" y="274.5508">Patient</text><line style="stroke: #A80036; stroke-width: 1.5;" x1="114.5" x2="253.5" y1="285.6406" y2="285.6406"/><text fill="#000000" font-family="sans-serif" font-size="11" lengthAdjust="spacingAndGlyphs" text-decoration="underline" textLength="8" x="119.5" y="301.0596">Id</text><line style="stroke: #000000; stroke-width: 1.0;" x1="119.5" x2="127.5" y1="303.0596" y2="303.0596"/><text fill="#000000" font-family="sans-serif" font-size="11" lengthAdjust="spacingAndGlyphs" textLength="21" x="127.5" y="301.0596">: INT</text><text fill="#000000" font-family="sans-serif" font-size="11" lengthAdjust="spacingAndGlyphs" textLength="101" x="119.5" y="314.8955">Prénom: NVARCHAR</text><text fill="#000000" font-family="sans-serif" font-size="11" lengthAdjust="spacingAndGlyphs" textLength="86" x="119.5" y="328.7314">Nom: NVARCHAR</text><text fill="#000000" font-family="sans-serif" font-size="11" lengthAdjust="spacingAndGlyphs" textLength="65" x="119.5" y="342.5674">Genre: CHAR</text><text fill="#000000" font-family="sans-serif" font-size="11" lengthAdjust="spacingAndGlyphs" textLength="129" x="119.5" y="356.4033">NuméroRamq: NVARCHAR</text><text fill="#000000" font-family="sans-serif" font-size="11" lengthAdjust="spacingAndGlyphs" textLength="107" x="119.5" y="370.2393">ExpirationRamq: DATE</text><!--class LitsPatient--><rect fill="#FEFECE" filter="url(#f1vzanhs9hdfd4)" height="95.3438" id="LitsPatient" style="stroke: #A80036; stroke-width: 1.5;" width="102" x="54" y="98.6406"/><ellipse cx="74.4" cy="114.6406" fill="#FFAAAA" rx="11" ry="11" style="stroke: #A80036; stroke-width: 1.0;"/><path d="M75.3219,112.0313 L75.3219,118.6875 L76.4781,118.6875 Q77.0875,118.6875 77.3453,118.9219 Q77.6031,119.1563 77.6031,119.5469 Q77.6031,119.9219 77.3453,120.1563 Q77.0875,120.3906 76.4781,120.3906 L72.4938,120.3906 Q71.8688,120.3906 71.6109,120.1563 Q71.3531,119.9219 71.3531,119.5313 Q71.3531,119.1563 71.6109,118.9219 Q71.8688,118.6875 72.4938,118.6875 L73.6188,118.6875 L73.6188,112.0313 L71.775,112.0313 L71.775,113.6406 Q71.775,114.25 71.5406,114.5156 Q71.3063,114.7813 70.9313,114.7813 Q70.5563,114.7813 70.3219,114.5156 Q70.0875,114.25 70.0875,113.6406 L70.0875,110.3281 L78.9,110.3281 L78.9,113.6406 Q78.9,114.25 78.6578,114.5156 Q78.4156,114.7813 78.0406,114.7813 Q77.6656,114.7813 77.4313,114.5156 Q77.1969,114.25 77.1969,113.6406 L77.1969,112.0313 L75.3219,112.0313 Z "/><text fill="#000000" font-family="sans-serif" font-size="12" lengthAdjust="spacingAndGlyphs" textLength="58" x="89.6" y="119.5508">LitsPatient</text><line style="stroke: #A80036; stroke-width: 1.5;" x1="55" x2="155" y1="130.6406" y2="130.6406"/><text fill="#000000" font-family="sans-serif" font-size="11" lengthAdjust="spacingAndGlyphs" text-decoration="underline" textLength="8" x="60" y="146.0596">Id</text><line style="stroke: #000000; stroke-width: 1.0;" x1="60" x2="68" y1="148.0596" y2="148.0596"/><text fill="#000000" font-family="sans-serif" font-size="11" lengthAdjust="spacingAndGlyphs" textLength="21" x="68" y="146.0596">: INT</text><text fill="#000000" font-family="sans-serif" font-size="11" lengthAdjust="spacingAndGlyphs" textLength="84" x="60" y="159.8955">IdLit: NVARCHAR</text><text fill="#000000" font-family="sans-serif" font-size="11" lengthAdjust="spacingAndGlyphs" textLength="88" x="60" y="173.7314">Depuis: DATETIME</text><text fill="#000000" font-family="sans-serif" font-size="11" lengthAdjust="spacingAndGlyphs" textLength="90" x="60" y="187.5674">Jusqua: DATETIME</text><!--class HopitalPatient--><rect fill="#FEFECE" filter="url(#f1vzanhs9hdfd4)" height="95.3438" id="HopitalPatient" style="stroke: #A80036; stroke-width: 1.5;" width="123" x="191.5" y="98.6406"/><ellipse cx="212.8" cy="114.6406" fill="#FFAAAA" rx="11" ry="11" style="stroke: #A80036; stroke-width: 1.0;"/><path d="M213.7219,112.0313 L213.7219,118.6875 L214.8781,118.6875 Q215.4875,118.6875 215.7453,118.9219 Q216.0031,119.1563 216.0031,119.5469 Q216.0031,119.9219 215.7453,120.1563 Q215.4875,120.3906 214.8781,120.3906 L210.8938,120.3906 Q210.2688,120.3906 210.0109,120.1563 Q209.7531,119.9219 209.7531,119.5313 Q209.7531,119.1563 210.0109,118.9219 Q210.2688,118.6875 210.8938,118.6875 L212.0188,118.6875 L212.0188,112.0313 L210.175,112.0313 L210.175,113.6406 Q210.175,114.25 209.9406,114.5156 Q209.7063,114.7813 209.3313,114.7813 Q208.9563,114.7813 208.7219,114.5156 Q208.4875,114.25 208.4875,113.6406 L208.4875,110.3281 L217.3,110.3281 L217.3,113.6406 Q217.3,114.25 217.0578,114.5156 Q216.8156,114.7813 216.4406,114.7813 Q216.0656,114.7813 215.8313,114.5156 Q215.5969,114.25 215.5969,113.6406 L215.5969,112.0313 L213.7219,112.0313 Z "/><text fill="#000000" font-family="sans-serif" font-size="12" lengthAdjust="spacingAndGlyphs" textLength="77" x="228.2" y="119.5508">HopitalPatient</text><line style="stroke: #A80036; stroke-width: 1.5;" x1="192.5" x2="313.5" y1="130.6406" y2="130.6406"/><text fill="#000000" font-family="sans-serif" font-size="11" lengthAdjust="spacingAndGlyphs" text-decoration="underline" textLength="8" x="197.5" y="146.0596">Id</text><line style="stroke: #000000; stroke-width: 1.0;" x1="197.5" x2="205.5" y1="148.0596" y2="148.0596"/><text fill="#000000" font-family="sans-serif" font-size="11" lengthAdjust="spacingAndGlyphs" textLength="21" x="205.5" y="146.0596">: INT</text><text fill="#000000" font-family="sans-serif" font-size="11" lengthAdjust="spacingAndGlyphs" textLength="61" x="197.5" y="159.8955">IdHopital: INT</text><text fill="#000000" font-family="sans-serif" font-size="11" lengthAdjust="spacingAndGlyphs" textLength="61" x="197.5" y="173.7314">IdPatient: INT</text><text fill="#000000" font-family="sans-serif" font-size="11" lengthAdjust="spacingAndGlyphs" textLength="111" x="197.5" y="187.5674">Identifiant: NVARCHAR</text><!--link PatientEnregistré to PatientAdmis--><path d="M507.054,335.2446 C509.732,360.1496 514.42,403.7436 517.359,431.0793 " fill="none" id="PatientEnregistré-PatientAdmis" style="stroke: #A80036; stroke-width: 1.0;"/><polygon fill="#A80036" points="517.922,436.3193,520.9366,426.9432,517.3873,431.348,512.9825,427.7987,517.922,436.3193" style="stroke: #A80036; stroke-width: 1.0;"/><!--link PatientAssignéAuLit to PatientAdmis--><path d="M657.887,339.3396 C641.152,361.0106 614.145,393.4186 586,416.6406 C577.171,423.9256 566.826,430.7167 556.979,436.5244 " fill="none" id="PatientAssignéAuLit-PatientAdmis" style="stroke: #A80036; stroke-width: 1.0;"/><polygon fill="#A80036" points="661.094,335.1536,652.4445,339.8639,658.0526,339.1222,658.7943,344.7302,661.094,335.1536" style="stroke: #A80036; stroke-width: 1.0;"/><!--link PatientAssignéAuLit to PatientLibéré--><path d="M675,335.2446 C675,360.1496 675,403.7436 675,431.0793 " fill="none" id="PatientAssignéAuLit-PatientLibéré" style="stroke: #A80036; stroke-width: 1.0;"/><polygon fill="#A80036" points="675,436.3193,679,427.3193,675,431.3193,671,427.3193,675,436.3193" style="stroke: #A80036; stroke-width: 1.0;"/><!--link LitsPatient to Patient--><path d="M127.006,193.6596 C133.991,208.4256 141.891,225.1256 149.535,241.2846 " fill="none" id="LitsPatient-Patient" style="stroke: #A80036; stroke-width: 1.0;"/><polygon fill="#A80036" points="155.312,253.4956,156.3623,246.3614,150.1809,242.648,149.1306,249.7822,155.312,253.4956" style="stroke: #A80036; stroke-width: 1.0;"/><text fill="#000000" font-family="sans-serif" font-size="13" lengthAdjust="spacingAndGlyphs" textLength="5" x="124.8709" y="215.3097">*</text><text fill="#000000" font-family="sans-serif" font-size="13" lengthAdjust="spacingAndGlyphs" textLength="7" x="144.5903" y="242.9575">1</text><!--link HopitalPatient to Patient--><path d="M233.78,193.6596 C227.679,208.4256 220.779,225.1256 214.102,241.2846 " fill="none" id="HopitalPatient-Patient" style="stroke: #A80036; stroke-width: 1.0;"/><polygon fill="#A80036" points="209.057,253.4956,215.0451,249.4779,213.6396,242.4051,207.6515,246.4228,209.057,253.4956" style="stroke: #A80036; stroke-width: 1.0;"/><text fill="#000000" font-family="sans-serif" font-size="13" lengthAdjust="spacingAndGlyphs" textLength="5" x="225.5899" y="215.3097">*</text><text fill="#000000" font-family="sans-serif" font-size="13" lengthAdjust="spacingAndGlyphs" textLength="7" x="204.5495" y="242.9575">1</text><!--link PatientData to Events--><path d="M358.0644,171.189 C358.1415,171.4189 358.219,171.65 358.2969,171.8824 C358.6086,172.8119 358.9269,173.7612 359.2514,174.7289 C364.4437,190.2133 371.2274,210.4434 378.0104,230.6711 C384.7933,250.8989 391.5755,271.1242 396.7646,286.5991 C397.089,287.5662 397.4071,288.5149 397.7186,289.4438 C397.7964,289.676 397.8739,289.907 397.9509,290.1367 " fill="none" id="PatientData-Events" style="stroke: #A80036; stroke-width: 1.0;"/><polygon fill="#A80036" points="358.0644,171.189,357.1333,180.9937,359.654,175.9295,364.7182,178.4503,358.0644,171.189" style="stroke: #A80036; stroke-width: 1.0;"/><!--
@startuml legacy-sql-map

title Données Legacy vers événements

hide methods
hide stereotypes

rectangle "Événements" as Events {
  class PatientEnregistré
  class PatientAdmis
  class PatientAssignéAuLit
  class PatientLibéré

  PatientEnregistré -d-> PatientAdmis
  PatientAdmis -up-> PatientAssignéAuLit
  PatientAssignéAuLit -d-> PatientLibéré
}

rectangle "Données Patient Legacy" as PatientData {
  class Patient << (T,#FFAAAA) >> {
    <u>Id</u>: INT
    Prénom: NVARCHAR
    Nom: NVARCHAR
    Genre: CHAR
    NuméroRamq: NVARCHAR
    ExpirationRamq: DATE
  }

  class LitsPatient << (T,#FFAAAA) >> {
    <u>Id</u>: INT
    IdLit: NVARCHAR
    Depuis: DATETIME
    Jusqua: DATETIME
  }

  class HopitalPatient << (T,#FFAAAA) >> {
    <u>Id</u>: INT
    IdHopital: INT
    IdPatient: INT
    Identifiant: NVARCHAR
  }
}

Patient "1" *-up- "*" LitsPatient
Patient "1" *-up- "*" HopitalPatient

PatientData <== Events

@enduml

PlantUML version 1.2019.03(Sun Mar 10 07:04:44 EDT 2019)
(GPL source distribution)
Java Runtime: Java(TM) SE Runtime Environment
JVM: Java HotSpot(TM) 64-Bit Server VM
Java Version: 1.8.0_181-b13
Operating System: Windows 10
OS Version: 10.0
Default Encoding: Cp1252
Language: en
Country: CA
--></g></svg>